<?xml version="1.0" encoding="utf-8"?>
<svg width="64" height="64" viewBox="0 0 64 64" xmlns="http://www.w3.org/2000/svg">
  <defs>
    <style>
      .cls-1 {
        clip-path: url(#clip-Gas_and_heating);
      }

      .cls-2 {
        fill: #fff;
        stroke: #ffb627;
        stroke-width: 2px;
      }

      .cls-3 {
        fill: #202a3d;
      }

      .cls-4 {
        fill: #fca022;
      }

      .cls-5 {
        stroke: none;
      }

      .cls-6 {
        fill: none;
      }

      .cls-7 {
        fill: rgba(255,255,255,0);
      }
    </style>
  </defs>
  <rect class="cls-7" width="64" height="64"/>
  <g id="Building-Construction_Houses_house-fire" data-name="Building-Construction / Houses / house-fire" transform="matrix(1, 0, 0, 1, -397.657043, -73.109001)">
    <g id="Group_6" data-name="Group 6" transform="translate(413.5 86.491)">
      <g id="house-fire">
        <path id="Path_491" data-name="Path 491" class="cls-3" d="M444.672,103.81a1.152,1.152,0,0,1-.816-.339L429.663,89.279,415.47,103.472a1.154,1.154,0,0,1-1.632-1.633L428.847,86.83a1.153,1.153,0,0,1,1.632,0l15.009,15.009a1.155,1.155,0,0,1-.816,1.972Z" transform="translate(-413.5 -86.491)"/>
        <path id="Path_492" data-name="Path 492" class="cls-3" d="M428.943,94.768a2.32,2.32,0,0,0-3.31,2.771,8.806,8.806,0,0,1-.323,6.358,2.212,2.212,0,0,1-1.74-1.847,1.177,1.177,0,0,0-.631-.862,1.128,1.128,0,0,0-1.062.015,8.742,8.742,0,0,0-4.541,8.174,9.745,9.745,0,0,0,19.488.108A15.1,15.1,0,0,0,428.943,94.768Zm5.573,14.593a7.435,7.435,0,1,1-14.87-.062,6.478,6.478,0,0,1,2.2-5.3,4.575,4.575,0,0,0,4.249,2.232,1.17,1.17,0,0,0,.924-.6,11.2,11.2,0,0,0,.816-8.836l.554-1.016L427.85,96.8A12.8,12.8,0,0,1,434.516,109.361Z" transform="translate(-411.441 -82.177)"/>
        <path id="Path_493" data-name="Path 493" class="cls-4" d="M433.705,108.907a7.435,7.435,0,1,1-14.87-.062,6.477,6.477,0,0,1,2.2-5.3,4.575,4.575,0,0,0,4.249,2.232,1.17,1.17,0,0,0,.924-.6,11.2,11.2,0,0,0,.816-8.836l.554-1.016-.539,1.016A12.8,12.8,0,0,1,433.705,108.907Z" transform="translate(-410.631 -81.724)"/>
      </g>
    </g>
  </g>
</svg>