<?xml version="1.0" encoding="utf-8"?>
<svg width="24" height="24" viewBox="0 0 24 24" xmlns="http://www.w3.org/2000/svg">
  <path id="Path_619" data-name="Path 619" d="M-32,131.061a12,12,0,0,0-12,12,12,12,0,0,0,12,12,12,12,0,0,0,12-12A12,12,0,0,0-32,131.061Zm-.038,4.354c.013,0,.025,0,.038,0h0a3.7,3.7,0,0,1,3.7,3.7h0a3.7,3.7,0,0,1-3.7,3.7h0a3.7,3.7,0,0,1-3.7-3.7A3.7,3.7,0,0,1-32.038,135.415Zm6.172,13.546a.743.743,0,0,1-.634.35h-11a.747.747,0,0,1-.749-.748.749.749,0,0,1,.072-.322,6.834,6.834,0,0,1,9.1-3.253,6.837,6.837,0,0,1,3.253,3.253A.747.747,0,0,1-25.866,148.961Z" transform="translate(44 -131.061)" fill-rule="evenodd" style="fill: rgb(252, 160, 34);"/>
</svg>