<?xml version="1.0" encoding="utf-8"?>
<svg width="24" height="25.044" viewBox="0 0 24 25.044" xmlns="http://www.w3.org/2000/svg">
  <g id="Booking_icon_selected" data-name="Booking icon selected" transform="translate(-227.5 -3029)">
    <g id="Group_324" transform="translate(227.5 3029)">
      <g id="calendar-3">
        <path id="Shape_922" d="M234.585,3039.5h-1.043a1.043,1.043,0,1,0,0,2.085h1.043a1.043,1.043,0,1,0,0-2.085Z" transform="translate(-227.282 -3028.543)" style="fill: rgb(252, 160, 34);"/>
        <path id="Shape_923" d="M239.585,3039.5h-1.043a1.043,1.043,0,1,0,0,2.085h1.043a1.043,1.043,0,1,0,0-2.085Z" transform="translate(-227.064 -3028.543)" style="fill: rgb(252, 160, 34);"/>
        <path id="Shape_924" d="M244.585,3039.5h-1.043a1.043,1.043,0,1,0,0,2.085h1.043a1.043,1.043,0,1,0,0-2.085Z" transform="translate(-226.846 -3028.543)" style="fill: rgb(252, 160, 34);"/>
        <path id="Shape_925" d="M234.585,3043.5h-1.043a1.043,1.043,0,1,0,0,2.085h1.043a1.043,1.043,0,1,0,0-2.085Z" transform="translate(-227.282 -3028.369)" style="fill: rgb(252, 160, 34);"/>
        <path id="Shape_926" d="M239.585,3043.5h-1.043a1.043,1.043,0,1,0,0,2.085h1.043a1.043,1.043,0,1,0,0-2.085Z" transform="translate(-227.064 -3028.369)" style="fill: rgb(252, 160, 34);"/>
        <path id="Shape_927" d="M244.585,3043.5h-1.043a1.043,1.043,0,1,0,0,2.085h1.043a1.043,1.043,0,1,0,0-2.085Z" transform="translate(-226.846 -3028.369)" style="fill: rgb(252, 160, 34);"/>
        <path id="Shape_928" d="M234.585,3047.5h-1.043a1.043,1.043,0,0,0,0,2.085h1.043a1.043,1.043,0,0,0,0-2.085Z" transform="translate(-227.282 -3028.365)" style="fill: rgb(252, 160, 34);"/>
        <path id="Shape_929" d="M239.585,3047.5h-1.043a1.043,1.043,0,1,0,0,2.085h1.043a1.043,1.043,0,1,0,0-2.085Z" transform="translate(-227.064 -3028.365)" style="fill: rgb(252, 160, 34);"/>
        <path id="Shape_930" d="M244.585,3047.5h-1.043a1.043,1.043,0,1,0,0,2.085h1.043a1.043,1.043,0,1,0,0-2.085Z" transform="translate(-226.846 -3028.365)" style="fill: rgb(252, 160, 34);"/>
        <path id="Shape_931" d="M246.543,3032.13h2.87a2.09,2.09,0,0,1,2.087,2.087v17.739a2.09,2.09,0,0,1-2.087,2.087H229.587a2.09,2.09,0,0,1-2.087-2.087v-17.739a2.09,2.09,0,0,1,2.087-2.087h1.565a.519.519,0,0,1,.522.522V3035a.783.783,0,0,0,1.565,0v-4.957a1.043,1.043,0,0,1,2.087,0v1.826a.26.26,0,0,0,.261.26h6.522a.519.519,0,0,1,.522.522V3035a.783.783,0,0,0,1.565,0v-4.957a1.043,1.043,0,0,1,2.087,0v1.826A.26.26,0,0,0,246.543,3032.13Zm2.348,19.826a.519.519,0,0,0,.522-.522v-12.522a.519.519,0,0,0-.522-.521H230.109a.519.519,0,0,0-.522.521v12.522a.519.519,0,0,0,.522.522Z" transform="translate(-227.5 -3029)" fill-rule="evenodd" style="fill: rgb(252, 160, 34);"/>
      </g>
    </g>
  </g>
</svg>