<svg xmlns="http://www.w3.org/2000/svg" width="19" height="19" viewBox="0 0 19 19">
  <g id="Interface-Essential_Date_Calendar_calendar-3" data-name="Interface-Essential / Date/Calendar / calendar-3" transform="translate(-303.005 -2847)">
    <g id="Group_266" data-name="Group 266" transform="translate(303.005 2847)">
      <g id="calendar-3">
        <path id="Path_151" data-name="Path 151" d="M320.224,2866.5H304.786a1.776,1.776,0,0,1-1.781-1.768v-12.964a1.776,1.776,0,0,1,1.781-1.768h15.438a1.776,1.776,0,0,1,1.781,1.768v12.964A1.776,1.776,0,0,1,320.224,2866.5Zm-15.438-15.322a.592.592,0,0,0-.594.589v12.964a.592.592,0,0,0,.594.589h15.438a.592.592,0,0,0,.594-.589v-12.964a.592.592,0,0,0-.594-.589Z" transform="translate(-303.005 -2847.5)" fill="#fca022"/>
        <path id="Path_152" data-name="Path 152" d="M321.411,2857.25H303.6a.626.626,0,0,1,0-1.25h17.813a.626.626,0,0,1,0,1.25Z" transform="translate(-303.005 -2848.9)" fill="#fca022"/>
        <path id="Path_153" data-name="Path 153" d="M309.63,2852.625a.625.625,0,0,1-.625-.625v-4.375a.625.625,0,0,1,1.25,0V2852A.625.625,0,0,1,309.63,2852.625Z" transform="translate(-304.272 -2847)" fill="#fca022"/>
        <path id="Path_154" data-name="Path 154" d="M320.13,2852.625a.625.625,0,0,1-.625-.625v-4.375a.625.625,0,0,1,1.25,0V2852A.625.625,0,0,1,320.13,2852.625Z" transform="translate(-306.488 -2847)" fill="#fca022"/>
        <path id="Path_155" data-name="Path 155" d="M308.443,2861.625a.938.938,0,1,1,.938-.937A.939.939,0,0,1,308.443,2861.625Zm0-1.25a.313.313,0,1,0,.313.313A.313.313,0,0,0,308.443,2860.375Z" transform="translate(-303.962 -2849.711)" fill="#fca022"/>
        <path id="Path_156" data-name="Path 156" d="M308.443,2866.875a.938.938,0,1,1,.938-.937A.939.939,0,0,1,308.443,2866.875Zm0-1.25a.313.313,0,1,0,.313.313A.313.313,0,0,0,308.443,2865.625Z" transform="translate(-303.962 -2850.827)" fill="#fca022"/>
        <path id="Path_157" data-name="Path 157" d="M314.818,2861.625a.938.938,0,1,1,.938-.937A.939.939,0,0,1,314.818,2861.625Zm0-1.25a.313.313,0,1,0,.313.313A.313.313,0,0,0,314.818,2860.375Z" transform="translate(-305.317 -2849.711)" fill="#fca022"/>
        <path id="Path_158" data-name="Path 158" d="M314.818,2866.875a.938.938,0,1,1,.938-.937A.939.939,0,0,1,314.818,2866.875Zm0-1.25a.313.313,0,1,0,.313.313A.313.313,0,0,0,314.818,2865.625Z" transform="translate(-305.317 -2850.827)" fill="#fca022"/>
        <path id="Path_159" data-name="Path 159" d="M321.193,2861.625a.938.938,0,1,1,.938-.937A.939.939,0,0,1,321.193,2861.625Zm0-1.25a.313.313,0,1,0,.313.313A.313.313,0,0,0,321.193,2860.375Z" transform="translate(-306.673 -2849.711)" fill="#fca022"/>
        <path id="Path_160" data-name="Path 160" d="M321.193,2866.875a.938.938,0,1,1,.938-.937A.939.939,0,0,1,321.193,2866.875Zm0-1.25a.313.313,0,1,0,.313.313A.313.313,0,0,0,321.193,2865.625Z" transform="translate(-306.673 -2850.827)" fill="#fca022"/>
      </g>
    </g>
  </g>
</svg>
