<?xml version="1.0" encoding="utf-8"?>
<svg width="20" height="24" viewBox="0 0 20 24" xmlns="http://www.w3.org/2000/svg">
  <g id="Group_685" data-name="Group 685" transform="translate(-335.586 -2973.882)">
    <path id="Path_201" data-name="Path 201" d="M354.586,2990.759a1.475,1.475,0,0,1-1.5-1.447v-4.689a7.742,7.742,0,0,0-6.5-7.778v-2a1,1,0,0,0-2,0v2a7.744,7.744,0,0,0-6.5,7.778v4.689a1.474,1.474,0,0,1-1.5,1.447.965.965,0,1,0,0,1.928h18a.965.965,0,1,0,0-1.928Z" transform="translate(0 0)" style="fill: rgb(252, 160, 34);"/>
    <path id="Path_202" data-name="Path 202" d="M348.553,2994.882h-5.162a.289.289,0,0,0-.286.256,2.976,2.976,0,0,0-.018.321,2.886,2.886,0,0,0,5.771,0,2.481,2.481,0,0,0-.018-.321A.285.285,0,0,0,348.553,2994.882Z" transform="translate(-0.386 -0.463)" style="fill: rgb(252, 160, 34);"/>
  </g>
</svg>