<?xml version="1.0" encoding="utf-8"?>
<svg width="64" height="64" viewBox="0 0 64 64" xmlns="http://www.w3.org/2000/svg">
  <defs>
    <style>
      .cls-1 {
        clip-path: url(#clip-Electrical);
      }

      .cls-2 {
        fill: #fff;
        stroke: #ffb627;
        stroke-width: 2px;
      }

      .cls-3 {
        fill: #202a3d;
      }

      .cls-4 {
        fill: #ffb627;
      }

      .cls-5 {
        stroke: none;
      }

      .cls-6 {
        fill: none;
      }

      .cls-7 {
        fill: rgba(255,255,255,0);
      }
    </style>
  </defs>
  <rect class="cls-7" width="64" height="64"/>
  <g id="Electrical_icon" data-name="Electrical icon" transform="matrix(1, 0, 0, 1, 17.982, 12.237)">
    <path id="Path_80" data-name="Path 80" class="cls-3" d="M1196.126,735.011a13.736,13.736,0,1,0-19.715.443,5.335,5.335,0,0,1,1.581,3.779v5.217a8.063,8.063,0,1,0,16.11,0v-.775c0-.016.016-.016.016-.032s-.016-.016-.016-.032v-3.826A7.108,7.108,0,0,1,1196.126,735.011Zm-4.4,7.447h-3.368a1.186,1.186,0,0,0,0,2.372h3.336a5.823,5.823,0,0,1-5.644,5.676,5.668,5.668,0,0,1-5.091-3.383h2.023a1.186,1.186,0,1,0,0-2.372H1180.4a1.743,1.743,0,0,1-.032-.3v-4.174h11.367Zm.237-4.553h-11.747a7.621,7.621,0,0,0-2.15-4.142,11.333,11.333,0,0,1,6.7-19.352,12.09,12.09,0,0,1,1.3-.079,11.2,11.2,0,0,1,7.557,2.909,11.368,11.368,0,0,1,3.763,8.443,11.251,11.251,0,0,1-3.02,7.715A9.8,9.8,0,0,0,1191.968,737.9Z" transform="translate(-1172.327 -711.96)"/>
    <path id="Path_81" data-name="Path 81" class="cls-4" d="M1184.224,733.238a1.184,1.184,0,0,0,1.186,1.186h3.336a5.822,5.822,0,0,1-5.644,5.676,5.669,5.669,0,0,1-5.091-3.383h2.024a1.186,1.186,0,1,0,0-2.372h-2.593a1.77,1.77,0,0,1-.031-.3V729.87h11.367v2.182h-3.367A1.174,1.174,0,0,0,1184.224,733.238Z" transform="translate(-1169.372 -701.554)"/>
  </g>
</svg>