<?xml version="1.0" encoding="utf-8"?>
<svg width="64" height="64" viewBox="0 0 64 64" xmlns="http://www.w3.org/2000/svg">
  <defs>
    <style>
      .cls-1 {
        clip-path: url(#clip-Joinery);
      }

      .cls-2 {
        fill: #fff;
        stroke: #ffb627;
        stroke-width: 2px;
      }

      .cls-3 {
        fill: #202a3d;
      }

      .cls-4 {
        fill: #ffb627;
      }

      .cls-5 {
        stroke: none;
      }

      .cls-6 {
        fill: none;
      }

      .cls-7 {
        fill: rgba(255,255,255,0);
      }
    </style>
  </defs>
  <rect class="cls-7" width="64" height="64"/>
  <g id="Joinery_icon" data-name="Joinery icon" transform="matrix(1, 0, 0, 1, 14.613998, 12.242002)">
    <path id="Path_75" data-name="Path 75" class="cls-3" d="M1025.682,737.12h-1.135v-9.082h3.406a1.135,1.135,0,1,0,0-2.27h-3.981l-3.406-4.541h3.981a1.135,1.135,0,1,0,0-2.27h-5.676l-3.406-4.541h5.676a1.135,1.135,0,1,0,0-2.27h-17.028a1.113,1.113,0,0,0-.863.424c-.015.015-.03.015-.045.03l-10.217,13.622a1.26,1.26,0,0,0-.106.2c-.015.03-.03.045-.03.061a1.149,1.149,0,0,0-.091.393V737.5a1.893,1.893,0,0,0,1.892,1.892h1.513v2.27h-1.513a1.893,1.893,0,0,0-1.892,1.892v3.027a1.893,1.893,0,0,0,1.892,1.892h31.029a3.411,3.411,0,0,0,3.406-3.406v-4.541A3.411,3.411,0,0,0,1025.682,737.12Zm-4.541-11.352h-6.251l-3.406-4.541h6.251Zm-8.522-11.352,3.406,4.541h-6.236l-3.406-4.541Zm-8.506.757,7.946,10.595H996.167Zm-9.081,21.947v-2.27h14.758v2.27Zm18.163,2.27v2.27H998.437v-2.27Zm-3.405,6.811H995.031v-2.27h14.758Zm17.028-1.135a1.134,1.134,0,0,1-1.135,1.135h-13.622v-2.27h1.514a1.893,1.893,0,0,0,1.892-1.892v-3.027a1.893,1.893,0,0,0-1.892-1.892h-1.514v-2.649a1.893,1.893,0,0,0-1.892-1.892H995.031v-4.541h18.163v5.676a1.135,1.135,0,0,0,2.271,0v-5.676h6.811v9.082h-4.541a1.135,1.135,0,1,0,0,2.27h7.946a1.144,1.144,0,0,1,1.135,1.135Z" transform="translate(-992.761 -712.146)"/>
    <rect id="Rectangle_50" data-name="Rectangle 50" class="cls-4" width="14.758" height="2.27" transform="translate(2.27 31.786)"/>
    <rect id="Rectangle_51" data-name="Rectangle 51" class="cls-4" width="14.758" height="2.27" transform="translate(5.676 27.245)"/>
    <rect id="Rectangle_52" data-name="Rectangle 52" class="cls-4" width="14.758" height="2.27" transform="translate(2.27 22.704)"/>
  </g>
</svg>