<?xml version="1.0" encoding="utf-8"?>
<svg width="64" height="64" viewBox="0 0 64 64" xmlns="http://www.w3.org/2000/svg">
  <defs>
    <style>
      .cls-1 {
        clip-path: url(#clip-Painting);
      }

      .cls-2 {
        fill: #fff;
        stroke: #ffb627;
        stroke-width: 2px;
      }

      .cls-3 {
        fill: #40485a;
      }

      .cls-4 {
        fill: #ffb627;
      }

      .cls-5 {
        stroke: none;
      }

      .cls-6 {
        fill: none;
      }

      .cls-7 {
        fill: rgba(255,255,255,0);
      }
    </style>
  </defs>
  <rect class="cls-7" width="64" height="64"/>
  <g id="Painting_icon" data-name="Painting icon" transform="matrix(1, 0, 0, 1, -1092.260986, -695.960022)">
    <g id="Group_286" data-name="Group 286" transform="translate(1108.92 713.806)">
      <path id="Path_73" data-name="Path 73" class="cls-3" d="M1135.021,713.806h-16.348a2.865,2.865,0,0,0-2.861,2.861v.7a5.347,5.347,0,0,0-4.887,5.525,5.283,5.283,0,0,0,1.716,3.712,5.183,5.183,0,0,0,3.793,1.421h7.978a1.217,1.217,0,0,1,1.21,1.128v2.436a3.662,3.662,0,0,0-2.452,3.449v7.078a3.649,3.649,0,0,0,3.628,3.563h.05a3.6,3.6,0,0,0,3.678-3.579v-7.063a3.662,3.662,0,0,0-2.452-3.449v-2.469a3.7,3.7,0,0,0-3.678-3.548h-8.011a2.888,2.888,0,0,1-.572-5.738v.622a2.876,2.876,0,0,0,2.861,2.861h16.348a2.864,2.864,0,0,0,2.86-2.861v-3.793A2.853,2.853,0,0,0,1135.021,713.806Zm-8.174,20.009a1.224,1.224,0,0,1,1.226,1.226v7.029a1.179,1.179,0,0,1-1.176,1.161h-.066a1.13,1.13,0,0,1-1.209-1.127v-7.063A1.235,1.235,0,0,1,1126.846,733.815Zm8.582-13.356a.4.4,0,0,1-.408.408h-16.348a.415.415,0,0,1-.409-.408v-3.793a.416.416,0,0,1,.409-.409h16.348a.4.4,0,0,1,.408.409Z" transform="translate(-1110.92 -713.806)"/>
      <path id="Path_74" data-name="Path 74" class="cls-4" d="M1133.721,716.1v3.793a.4.4,0,0,1-.408.408h-16.348a.415.415,0,0,1-.409-.408V716.1a.416.416,0,0,1,.409-.409h16.348A.4.4,0,0,1,1133.721,716.1Z" transform="translate(-1109.213 -713.236)"/>
    </g>
  </g>
</svg>