<?xml version="1.0" encoding="utf-8"?>
<svg width="64" height="64" viewBox="0 0 64 64" xmlns="http://www.w3.org/2000/svg">
  <defs>
    <style>
      .cls-1 {
        clip-path: url(#clip-Plumbing);
      }

      .cls-2 {
        fill: #fff;
        stroke: #ffb627;
        stroke-width: 2px;
      }

      .cls-3 {
        fill: #202a3d;
      }

      .cls-4 {
        fill: #ffb627;
      }

      .cls-5 {
        stroke: none;
      }

      .cls-6 {
        fill: none;
      }

      .cls-7 {
        fill: rgba(255,255,255,0);
      }
    </style>
  </defs>
  <rect class="cls-7" width="64" height="64"/>
  <g id="Plumbing_icon" data-name="Plumbing icon" transform="matrix(1, 0, 0, 1, 14.667999, 15.104001)">
    <path id="Path_70" data-name="Path 70" class="cls-3" d="M1084.848,712.9h-2.179a2.185,2.185,0,0,0-2.178,2.178H1079.4a14.2,14.2,0,0,0-13.768,10.893h-.392a2.185,2.185,0,0,0-2.178,2.179v4.357a2.165,2.165,0,0,0,1.234,1.946,5.433,5.433,0,0,1-4.488,2.411h-1.1a2.176,2.176,0,0,0-2.179-2.178h-2.179a2.185,2.185,0,0,0-2.178,2.178v8.714a2.194,2.194,0,0,0,2.178,2.178h2.179a2.185,2.185,0,0,0,2.179-2.178h1.1a14.219,14.219,0,0,0,13.768-10.893h.378a2.185,2.185,0,0,0,2.179-2.179V728.15a2.171,2.171,0,0,0-1.234-1.961,5.465,5.465,0,0,1,4.5-2.4h1.089a2.194,2.194,0,0,0,2.178,2.178h2.179a2.185,2.185,0,0,0,2.179-2.178v-8.714A2.176,2.176,0,0,0,1084.848,712.9Zm-28.321,32.678h-2.179v-8.714h2.179Zm3.268-2.179h-1.089v-4.357h1.1a7.64,7.64,0,0,0,6.884-4.357h4.648A12.06,12.06,0,0,1,1059.795,743.4Zm14.161-10.893h-8.714V728.15h8.714Zm6.536-10.893H1079.4a7.615,7.615,0,0,0-6.884,4.357h-4.648a12.025,12.025,0,0,1,11.546-8.714h1.075Zm4.357,2.178h-2.179v-8.714h2.179Z" transform="translate(-1052.17 -712.9)"/>
    <path id="Path_71" data-name="Path 71" class="cls-4" d="M1075.6,715.9v4.357h-1.089a7.615,7.615,0,0,0-6.884,4.357h-4.648a12.025,12.025,0,0,1,11.547-8.714Z" transform="translate(-1047.28 -711.543)"/>
    <path id="Path_72" data-name="Path 72" class="cls-4" d="M1069.305,727.9a12.06,12.06,0,0,1-11.546,8.714h-1.089v-4.357h1.1a7.64,7.64,0,0,0,6.884-4.357Z" transform="translate(-1050.134 -706.115)"/>
  </g>
</svg>