<svg xmlns="http://www.w3.org/2000/svg" width="143.735" height="175.944" viewBox="0 0 143.735 175.944">
  <g id="Group_731" data-name="Group 731" transform="translate(-133.355 -304.646)">
    <g id="Group_347" data-name="Group 347" transform="translate(141.272 357.697)" opacity="0.377">
      <path id="Path_183" data-name="Path 183" d="M9.9,12.28A12.859,12.859,0,0,1,.509,2.49L0,0H8.149Z" transform="translate(77.303 59.42)" fill="#d8d8d8"/>
      <path id="Path_184" data-name="Path 184" d="M15.732,50.819a8.025,8.025,0,0,1-6.168-1.585,8.217,8.217,0,0,1-3.282-5.489L0,0H16.921l5.885,41.368A8.287,8.287,0,0,1,15.732,50.819Z" transform="translate(93.997 59.42)" fill="#d3d9e4"/>
      <path id="Path_185" data-name="Path 185" d="M16.977,0V25.466H1.415A1.4,1.4,0,0,1,0,24.051V1.415A1.4,1.4,0,0,1,1.415,0Z" transform="translate(33.955 16.977)" fill="#d3d9e4"/>
      <path id="Path_186" data-name="Path 186" d="M60.835,0H1.415A1.4,1.4,0,0,0,0,1.415V41.028a1.4,1.4,0,0,0,1.415,1.415h59.42a7.076,7.076,0,0,0,7.074-7.074V7.074A7.076,7.076,0,0,0,60.835,0ZM46.687,33.954H29.71a4.244,4.244,0,1,1,0-8.489H46.687a4.244,4.244,0,1,1,0,8.489Zm0-16.977H29.71a4.244,4.244,0,1,1,0-8.489H46.687a4.244,4.244,0,1,1,0,8.489Z" transform="translate(59.42 8.489)" fill="#d3d9e4"/>
      <path id="Path_187" data-name="Path 187" d="M31.637,4.45,0,46.893H57.465V7.578L38.1,0Z" transform="translate(71.644 4.039)" fill="#abb7cc"/>
      <path id="Path_188" data-name="Path 188" d="M1.842,10.786l16.992,11.4L17.731,0,2.554.755,0,8.376Z" transform="translate(72.857 54.881)" fill="#abb7cc"/>
      <path id="Path_189" data-name="Path 189" d="M5.625,2.391a2.829,2.829,0,0,0-5.591.866L5.5,38.49a2.831,2.831,0,0,0,2.8,2.394,2.864,2.864,0,0,0,.436-.034A2.833,2.833,0,0,0,11.1,37.619Z" transform="translate(98.01 62.734)" fill="#f0f1f4"/>
      <path id="Path_190" data-name="Path 190" d="M2.83,0A2.827,2.827,0,0,0,0,2.83V34.668a2.83,2.83,0,1,0,5.659,0V2.83A2.823,2.823,0,0,0,2.83,0Z" transform="translate(62.42 10.962)" fill="#f0f1f4"/>
      <path id="Path_191" data-name="Path 191" d="M1.715,0A1.71,1.71,0,0,0,0,1.715V21.023a1.715,1.715,0,0,0,3.429,0V1.715A1.71,1.71,0,0,0,1.715,0Z" transform="translate(35.918 18.352)" fill="#f0f1f4"/>
      <path id="Path_192" data-name="Path 192" d="M25.466,4.244a4.275,4.275,0,0,1-4.244,4.244H4.244A4.244,4.244,0,1,1,4.244,0H21.222A4.239,4.239,0,0,1,25.466,4.244Z" transform="translate(84.886 16.977)" fill="#8e99ad"/>
      <path id="Path_193" data-name="Path 193" d="M25.466,4.244a4.275,4.275,0,0,1-4.244,4.244H4.244A4.244,4.244,0,0,1,4.244,0H21.222A4.239,4.239,0,0,1,25.466,4.244Z" transform="translate(84.886 33.954)" fill="#8e99ad"/>
      <path id="Path_194" data-name="Path 194" d="M0,0,8.852,56.586l9.05-9.281-2.328-18.84L9.142.343Z" transform="translate(105.446 54.881)" fill="#abb7cc"/>
      <path id="Path_195" data-name="Path 195" d="M.68,0,0,38.207l7.013-5.061L7.647,20.5l-1-19.222Z" transform="translate(44.969 11.529)" fill="#abb7cc"/>
      <path id="Path_196" data-name="Path 196" d="M120.256,0H60.835A9.827,9.827,0,0,0,51.1,8.489H35.369a9.914,9.914,0,0,0-9.9,9.9v7.074H4.244a4.244,4.244,0,0,0,0,8.489H25.466v7.074a9.951,9.951,0,0,0,9.9,9.9H51.1a9.876,9.876,0,0,0,9.734,8.489H68.7l.792,4.131A21.276,21.276,0,0,0,88.452,80.472l3.4,23.881A16.863,16.863,0,0,0,125.236,99.6l-5.772-40.18h.792a15.59,15.59,0,0,0,15.562-15.562v-28.3A15.554,15.554,0,0,0,120.256,0ZM50.932,42.443H35.369a1.4,1.4,0,0,1-1.415-1.415V18.392a1.4,1.4,0,0,1,1.415-1.415H50.932ZM77.812,61.91,77.3,59.42h8.149L87.206,71.7A12.859,12.859,0,0,1,77.812,61.91Zm31.917,48.329a8.025,8.025,0,0,1-6.168-1.585,8.217,8.217,0,0,1-3.282-5.489L94,59.42h16.921l5.885,41.368A8.287,8.287,0,0,1,109.73,110.239Zm17.6-66.381a7.076,7.076,0,0,1-7.074,7.074H60.835a1.4,1.4,0,0,1-1.415-1.415V9.9a1.4,1.4,0,0,1,1.415-1.415h59.42a7.076,7.076,0,0,1,7.074,7.074Z" transform="translate(0 0)" fill="#8e99ad"/>
    </g>
    <line id="Line_39" data-name="Line 39" x1="168.944" transform="translate(136.855 308.146) rotate(90)" fill="none" stroke="#8e99ad" stroke-linecap="round" stroke-width="7" opacity="0.377"/>
    <path id="Path_197" data-name="Path 197" d="M11719.405,7883.6s.339-4.412,3.858-4.168,10.156,3.73,17.509-3.22" transform="translate(8027.823 -11321.924) rotate(90)" fill="none" stroke="#8e99ad" stroke-linecap="round" stroke-width="3" opacity="0.377"/>
    <path id="Path_199" data-name="Path 199" d="M0,5.063S.233,2.04,2.646,2.207,9.607,4.764,14.647,0" transform="matrix(0.259, 0.966, -0.966, 0.259, 160.832, 397.49)" fill="none" stroke="#8e99ad" stroke-linecap="round" stroke-width="3" opacity="0.377"/>
    <path id="Path_198" data-name="Path 198" d="M11740.773,7883.6s-.34-4.412-3.858-4.168-10.157,3.73-17.509-3.22" transform="translate(8027.823 -11363.886) rotate(90)" fill="none" stroke="#8e99ad" stroke-linecap="round" stroke-width="3" opacity="0.377"/>
    <path id="Path_200" data-name="Path 200" d="M11.31,3.91S11.128,1.575,9.267,1.7,3.891,3.679,0,0" transform="translate(161.384 371.353) rotate(115)" fill="none" stroke="#8e99ad" stroke-linecap="round" stroke-width="3" opacity="0.377"/>
  </g>
</svg>
