<svg xmlns="http://www.w3.org/2000/svg" width="77.703" height="73.547" viewBox="0 0 77.703 73.547">
  <g id="Group_364" data-name="Group 364" transform="translate(-207.596 -485.78)" opacity="0.272">
    <path id="Path_240" data-name="Path 240" d="M232.761,516.791h11.207a16.7,16.7,0,0,1-8.214,5.827,17.283,17.283,0,0,1-13.866-1.344,2.371,2.371,0,0,0-2.837.283l-9.437,9.052a2.374,2.374,0,0,0-.064,3.375h0a6.617,6.617,0,0,1-.016-9.376l6.033-6.033a2.454,2.454,0,0,0,.382-2.993,15.3,15.3,0,0,1,.286-16.524,17.174,17.174,0,0,1,27.731-.8H232.761a9.269,9.269,0,1,0,0,18.53Z" transform="translate(0 12.735)" fill="#abb7cc"/>
    <path id="Path_241" data-name="Path 241" d="M233.874,509.152l-2.2,3.884h-.064V513l-8.373-4.171,2.26-4.043Z" transform="translate(34.164 41.515)" fill="#abb7cc"/>
    <path id="Path_242" data-name="Path 242" d="M242.163,509.074a2.509,2.509,0,0,1-3.248.923.031.031,0,0,1-.032-.032l-12.608-6.559h-.064a2.183,2.183,0,0,1-1.083-1.305,2.118,2.118,0,0,1,.159-1.592,2.47,2.47,0,0,1,2.133-1.21,2.672,2.672,0,0,1,1.178.287l12.608,6.559a2.207,2.207,0,0,1,1.114,1.337A2.118,2.118,0,0,1,242.163,509.074Z" transform="translate(38.101 29.526)" fill="#abb7cc"/>
    <path id="Path_243" data-name="Path 243" d="M235.229,506.622l-2.2,3.884-8.342-4.33,2.2-3.916Z" transform="translate(37.331 35.99)" fill="#abb7cc"/>
    <path id="Path_244" data-name="Path 244" d="M243.6,489.477a2.309,2.309,0,0,1-2.388,2.2H226.888a2.2,2.2,0,1,1,0-4.394h14.327A2.309,2.309,0,0,1,243.6,489.477Z" transform="translate(36.916 3.276)" fill="#abb7cc"/>
    <rect id="Rectangle_232" data-name="Rectangle 232" width="9.552" height="4.394" transform="translate(266.192 499.725)" fill="#abb7cc"/>
    <path id="Path_245" data-name="Path 245" d="M235.583,493.04V497.4a.031.031,0,0,1-.032.032l-9.552.1V493.04Z" transform="translate(40.192 15.855)" fill="#abb7cc"/>
    <path id="Path_246" data-name="Path 246" d="M224.259,520.607l8.827-15.6,3.678.89,2.622-5.3,6.572,3.31v3.525l-5.149,1.907L229.8,524.684l-4.776-1.287Z" transform="translate(36.389 32.352)" fill="#8e99ad"/>
    <path id="Path_247" data-name="Path 247" d="M212.12,506.051a29.005,29.005,0,0,0,7.574-2.114,30.376,30.376,0,0,0,8.421-5.457l2.27,2.789,5.151-2.789,3.034,6.361-2.1,2.834-8.654,1.118-13.006,1.563-3.766-1.63Z" transform="translate(7.537 27.735)" fill="#8e99ad"/>
    <path id="Path_248" data-name="Path 248" d="M249.2,516.338a2.381,2.381,0,0,1,.191,2.26,21.177,21.177,0,0,1-13.022,11.844,22.338,22.338,0,0,1-16.174-.955l-8.151,7.832a2.391,2.391,0,0,1-1.656.669,2.29,2.29,0,0,1-1.719-.732,2.374,2.374,0,0,1,.064-3.375l9.392-9.01a2.358,2.358,0,0,1,2.834-.35,17.284,17.284,0,0,0,13.913,1.369,16.7,16.7,0,0,0,8.214-5.827H231.882a9.269,9.269,0,1,1,0-18.53h11.207a17.174,17.174,0,0,0-27.731.8,15.3,15.3,0,0,0-.286,16.524,2.454,2.454,0,0,1-.382,2.993l-2.643,2.515a2.387,2.387,0,1,1-3.311-3.438l1.337-1.274a19.965,19.965,0,0,1,1.305-19.931A21.656,21.656,0,0,1,231.4,490.2a21.281,21.281,0,0,1,17.989,12.767,2.374,2.374,0,0,1-.191,2.261,2.436,2.436,0,0,1-2.006,1.083H231.882a4.5,4.5,0,1,0,0,8.978H247.2A2.406,2.406,0,0,1,249.2,516.338Z" transform="translate(0.88 9.463)" fill="#717b8e"/>
    <path id="Path_249" data-name="Path 249" d="M227.547,512.068l-.047-17.924,3.637-1.046-.345-5.906,7.349-.375,1.744,3.063-3.531,4.2-1.973,18.783-4.787,1.244Z" transform="translate(43.468 2.266)" fill="#8e99ad"/>
    <path id="Path_250" data-name="Path 250" d="M249.267,504.119h-2.388v-4.84a6.954,6.954,0,0,0,4.776-6.527,7.074,7.074,0,0,0-7.164-6.973H230.164A7.074,7.074,0,0,0,223,492.753a6.954,6.954,0,0,0,4.776,6.527v4.84h-2.388a2.388,2.388,0,1,0,0,4.776h2.388v4.489a4.729,4.729,0,0,0,4.776,4.68H242.1a4.729,4.729,0,0,0,4.776-4.68v-4.489h2.388a2.388,2.388,0,1,0,0-4.776Zm-7.132,9.138a.031.031,0,0,1-.032.032l-9.552.1v-4.489h9.583Zm-9.583-9.138v-4.394H242.1v4.394Zm11.939-9.17H230.164a2.2,2.2,0,1,1,0-4.394h14.327a2.2,2.2,0,1,1,0,4.394Z" transform="translate(33.64 0)" fill="#717b8e"/>
    <path id="Path_251" data-name="Path 251" d="M254.467,509.389a6.948,6.948,0,0,0-3.5-4.2l-12.608-6.559a7.313,7.313,0,0,0-3.343-.828,7.19,7.19,0,0,0-6.3,3.63,6.771,6.771,0,0,0-.6,5.317,6.321,6.321,0,0,0,1.56,2.674l-2.42,4.3-2.165-1.146a2.376,2.376,0,0,0-3.216,1.019,2.35,2.35,0,0,0,1.019,3.216l2.006,1.051-2.2,3.884a4.648,4.648,0,0,0,1.942,6.4l8.374,4.362a4.677,4.677,0,0,0,2.261.573,4.849,4.849,0,0,0,1.337-.191,4.651,4.651,0,0,0,2.834-2.229l2.292-4.043,2.133,1.114a2.289,2.289,0,0,0,1.114.255,2.319,2.319,0,0,0,2.1-1.273,2.376,2.376,0,0,0-1.019-3.216l-1.974-1.051,2.388-4.266a6.67,6.67,0,0,0,1.083.127,7.189,7.189,0,0,0,6.3-3.6A6.771,6.771,0,0,0,254.467,509.389ZM235.3,528.3h-.064v-.032l-8.373-4.171,2.26-4.043,8.374,4.362Zm4.521-8.055-8.342-4.33,2.2-3.916,8.342,4.362Zm9.9-7.9a2.509,2.509,0,0,1-3.248.923.031.031,0,0,1-.032-.032l-12.608-6.559h-.064a2.183,2.183,0,0,1-1.083-1.305,2.118,2.118,0,0,1,.159-1.592,2.47,2.47,0,0,1,2.133-1.21,2.672,2.672,0,0,1,1.178.287l12.608,6.559a2.207,2.207,0,0,1,1.114,1.337A2.118,2.118,0,0,1,249.723,512.35Z" transform="translate(30.541 26.25)" fill="#717b8e"/>
    <path id="Path_252" data-name="Path 252" d="M211.772,507.7a1.592,1.592,0,0,1-1.592-1.592,13.866,13.866,0,0,1,13.853-13.85,1.592,1.592,0,1,1,0,3.184,10.679,10.679,0,0,0-10.669,10.666A1.59,1.59,0,0,1,211.772,507.7Z" transform="translate(5.643 14.151)" fill="#f0f1f4"/>
    <path id="Path_253" data-name="Path 253" d="M232.326,490.654H226.34a1.592,1.592,0,1,1,0-3.184h5.986a1.592,1.592,0,1,1,0,3.184Z" transform="translate(37.458 3.691)" fill="#f0f1f4"/>
    <path id="Path_254" data-name="Path 254" d="M232.239,505.449a1.6,1.6,0,0,1-.732-.178l-5.314-2.76a1.591,1.591,0,0,1,1.468-2.824l5.314,2.757a1.591,1.591,0,0,1-.735,3.005Z" transform="translate(38.741 29.977)" fill="#f0f1f4"/>
  </g>
</svg>
