<svg xmlns="http://www.w3.org/2000/svg" xmlns:xlink="http://www.w3.org/1999/xlink" width="294" height="253.402" viewBox="0 0 294 253.402">
  <defs>
    <clipPath id="clip-path">
      <circle id="Ellipse_142" data-name="Ellipse 142" cx="44.425" cy="44.425" r="44.425" fill="none"/>
    </clipPath>
  </defs>
  <g id="Group_723" data-name="Group 723" transform="translate(-60 -162)">
    <g id="Group_662" data-name="Group 662" transform="translate(-245.48 -190.135)" opacity="0.7">
      <g id="Layer_24" data-name="Layer 24" transform="translate(308.874 352.135)">
        <path id="Path_506" data-name="Path 506" d="M573.454,630.15a57.179,57.179,0,0,1-14.158,6.174c-16.193,4.569-35.33,2.455-48.558,12.033-9.459,6.854-13.343,18-19.437,27.456-16.1,25-48.553,38.37-80.414,41.669-22.267,2.3-46.4-.035-64.056-12.488-21.632-15.258-28.566-41.579-32.5-66.2-.1-.64-.2-1.27-.3-1.9-.34-2.19-.655-4.449-.9-6.744Z" transform="translate(-312.699 -491.162)" fill="#abb7cc" opacity="0.25"/>
        <path id="Path_507" data-name="Path 507" d="M594.705,468.617a60.9,60.9,0,0,1-21.682,22.507H312.7c-1-9.589-.65-19.787,5.454-27.811,6.864-9.019,19.317-14.818,28.261-21.977,7.264-5.809,18.038-14.153,27.251-26.5,13.133-17.588,7.879-22.617,19.172-36.595,2.13-2.645,17.468-21.092,42.249-25.367,10.609-1.83,19.837-.11,38.3,3.335,9.049,1.69,9.974,2.395,32.031,8.174,23.752,6.229,32.806,8.784,52.038,13.928,8.149,2.18,16.458,4.429,23.412,8.839,13.348,8.454,19.592,23.582,21.387,38.2C604.064,440.061,602.019,455.364,594.705,468.617Z" transform="translate(-312.268 -352.135)" fill="#e6e9f0" opacity="0.25"/>
        <g id="Group_661" data-name="Group 661" transform="translate(188.729 160.529)">
          <circle id="Ellipse_140" data-name="Ellipse 140" cx="44.425" cy="44.425" r="44.425" transform="translate(0 4.024)" fill="#d3d3d3" opacity="0.25"/>
          <path id="Path_509" data-name="Path 509" d="M692.193,755.235l6.13-5.108a.875.875,0,0,1,1.242.124l1.718,2.139a.875.875,0,0,1-.169,1.255l-4.243,3.083a.875.875,0,0,0-.188,1.229h0a.875.875,0,0,1-.221,1.251l-1.033.681a.875.875,0,0,1-1.207-.241l-2.193-3.252A.875.875,0,0,1,692.193,755.235Z" transform="translate(-690.827 -711.586)" fill="#f68a15"/>
          <g id="Group_658" data-name="Group 658" transform="translate(0 4.024)">
            <g id="Group_657" data-name="Group 657" clip-path="url(#clip-path)">
              <path id="Path_510" data-name="Path 510" d="M730.918,780.028s-3.994,4.7-7.719,4.733l-3.725.036s-11.022,4.268-12.182,7.781-5.606,10.541-2.952,15.7,19.792,15.489,19.792,15.489l38.163-5.02s19.421-2.151,19.421-2.582-5.307-6.884-5.307-6.884l-.717-10.757a9.987,9.987,0,0,0-5.88-8.953c-6.024-2.664-16.637-4.815-18.932-6.106a5.487,5.487,0,0,1-2.7-3.442l-8.631,7.743Z" transform="translate(-696.643 -730.664)" fill="#fca022"/>
              <circle id="Ellipse_141" data-name="Ellipse 141" cx="44.425" cy="44.425" r="44.425" fill="none"/>
            </g>
          </g>
          <path id="Path_511" data-name="Path 511" d="M750.57,829.551l3.789,3.788a.737.737,0,0,0,1.035.007l2.717-2.639a.738.738,0,0,0,.018-1.04L754.6,826l-1.291,1.291,1.818,1.818a.738.738,0,0,1,0,1.043h0a.738.738,0,0,1-1.049-.006l-1.953-1.995Z" transform="translate(-720.178 -749.629)" fill="#f68a15"/>
          <path id="Path_512" data-name="Path 512" d="M774.073,728.678l.008-3.947-1.936-7.236c-20.463-9.61,2.324-5.914-26.394-3.071-.313.83-2.52,13.38-2.524,14.278-.56-.324-1.3.2-1.452.827a3.158,3.158,0,0,0,.352,1.877l2.81,6.8,1.56,3.774c.815,1.97,1.729,4.063,3.529,5.206l0,3.56a2.425,2.425,0,0,0,1.112,2.337l7.527,6.7,7.515-6.693a2.43,2.43,0,0,0,1.121-2.321l.019-3.552c1.952-1.463,2.964-3.831,3.891-6.088l2.521-6.137,1.373-3.341a3.532,3.532,0,0,0,.391-1.931A1.221,1.221,0,0,0,774.073,728.678Z" transform="translate(-715.758 -698.665)" fill="#ffb627"/>
          <path id="Path_513" data-name="Path 513" d="M697.7,768.313,702,764.9a4.523,4.523,0,0,1,6.474.886l8.928,12.306a.761.761,0,0,1-.176,1.068l-3.143,2.223a.761.761,0,0,1-1.072-.2l-2.585-3.878a.76.76,0,0,0-.582-.337l-7.254-.49a.762.762,0,0,1-.541-.281l-1.552-1.922a.761.761,0,0,1,.137-1.088l3.291-2.449a.76.76,0,0,0,.089-1.143l-1.709-1.742a.761.761,0,0,0-1.013-.065l-2.515,1.976a.761.761,0,0,1-1.141-.24l-.135-.253A.761.761,0,0,1,697.7,768.313Z" transform="translate(-693.595 -718.582)" fill="#f68a15"/>
          <path id="Path_514" data-name="Path 514" d="M712.742,793.22l2.964,4.742a1.511,1.511,0,0,0,.876.654l.493.137a.8.8,0,0,0,1.006-.657l.307-2.155a1.6,1.6,0,0,0-.361-1.256l-1.443-1.705a1.537,1.537,0,0,0-1.174-.544h-2.235A.512.512,0,0,0,712.742,793.22Z" transform="translate(-701.222 -732.845)" fill="#f68a15"/>
          <g id="Group_660" data-name="Group 660" transform="translate(0 4.024)">
            <g id="Group_659" data-name="Group 659" clip-path="url(#clip-path)">
              <path id="Path_515" data-name="Path 515" d="M705.171,816.027c1.492-.382,3.433-2.925,4.54-3.921,1.577-1.42,3.634-2.547,4.76-4.405.994-1.641,1.05-4.052,1.423-5.918a3.229,3.229,0,0,1,1.279-1.986l5.416-3.9a2.019,2.019,0,0,1,2.805.442l7.507,10.206a1.628,1.628,0,0,1-.235,2.186l-7.057,6.221-8.82,6.024Z" transform="translate(-697.475 -738.409)" fill="#ffb627"/>
            </g>
          </g>
        </g>
      </g>
      <g id="Head" transform="translate(376.945 419.277)">
        <path id="Path_516" data-name="Path 516" d="M454.359,572.762a38.412,38.412,0,0,0,3.016-21.669c-1.256-7.918-6.6-14.359-8.2-22.2-3.206-15.661,4.008-36.378,20.466-41.383,14.537-4.421,30.844,5.4,37.316,18.394,3.56,7.148,2.229,14.86,1.189,22.433a184.367,184.367,0,0,1-4.2,21.368c-1.1,4.222-1.757,8.824-4.293,12.491-6.181,8.94-20.039,5.405-26.967-.617" transform="translate(-448.429 -486.437)" fill="#ffb818"/>
      </g>
      <g id="Layer_31" data-name="Layer 31" transform="translate(467.84 420.934)">
        <path id="Path_517" data-name="Path 517" d="M630.244,489.751" transform="translate(-630.244 -489.751)" fill="none" stroke="#94521c" stroke-miterlimit="10" stroke-width="1"/>
      </g>
      <g id="Layer_22" data-name="Layer 22" transform="translate(376.963 419.432)">
        <path id="Path_518" data-name="Path 518" d="M448.929,527.611c.64,7.253,1.509,8.674,2.157,8.724,2.521.2,1.975-20.373,14.881-30.879,6.19-5.039,12.575-5.4,15.068-5.023.222.034,2.326.354,2.418,1.116.076.627-1.284.961-2.79,2.6-.61.666-1.849,2.017-1.488,2.976.3.794,1.576,1.018,2.418,1.116,3.961.462,7.594-.779,9.859-1.488,6.656-2.082,10.01-3.137,11.905-2.046,1.959,1.128,3.182,3.715,4.455,3.277a1.4,1.4,0,0,0,.713-.7c1.192-2.379-7.165-13.563-19.631-18.125-3.158-1.156-12.833-4.7-22.6-.2-6.554,3.018-10.088,8.253-11.665,10.591a35.519,35.519,0,0,0-5.384,13.754A42.187,42.187,0,0,0,448.929,527.611Z" transform="translate(-448.467 -486.747)" fill="#202020"/>
      </g>
      <g id="neck" transform="translate(382.975 491.984)">
        <path id="Path_519" data-name="Path 519" d="M497.157,640.391c.194.291-.023.8-.428,1.743a9.152,9.152,0,0,1-.46.933c-1.183,1.99-27.185,8.39-33.881,4.587a4.415,4.415,0,0,1-1.634-1.364c-.549-.869-.346-2.406,1.652-5.263,2.533-3.623,8.955-10.666,13.574-8.867.7.275.382.371,2.735,2.148a31.7,31.7,0,0,0,6.393,3.97,24.569,24.569,0,0,0,7.165,1.9,23.064,23.064,0,0,0,3.064.133C495.745,640.3,496.875,639.968,497.157,640.391Z" transform="translate(-460.491 -631.871)" fill="#fba818"/>
      </g>
      <g id="Layer_16" data-name="Layer 16" transform="translate(437.791 468.387)">
        <path id="Path_520" data-name="Path 520" d="M570.258,720.9c-.425-.367.372-1.562.93-2.455a18.894,18.894,0,0,1,19.667-8.6c1.542.3,2.228,1.683,3.143,2.853l3.153,4.028,4.266,5.451L574.5,719.856c-1,.335-2,.707-3.013,1.008C570.806,721.065,570.431,721.052,570.258,720.9Z" transform="translate(-570.138 -647.1)" fill="#ffb818"/>
        <path id="Path_521" data-name="Path 521" d="M638.621,584.671" transform="translate(-604.384 -584.671)" fill="none" stroke="#db0016" stroke-miterlimit="10" stroke-width="1"/>
      </g>
      <g id="Shirt" transform="translate(347.708 500.731)">
        <path id="Path_522" data-name="Path 522" d="M425.074,653.939q-1.174.157-2.344.348c-7.4,1.207-14.755,3.541-20.8,7.976a26.3,26.3,0,0,0-9.226,11.582c-2.208,5.816-1.73,12.142-1.637,18.236a52.707,52.707,0,0,1-.49,9.45c-.373,2.251-1.243,5.421.051,7.528,1.268-1.131,1.826-3.281,2.709-4.748a13.688,13.688,0,0,1,5.417-5.406c4.219-2.119,9.675-1.553,13.705.744,5.061,2.884,4.988,7.1,5.959,12.26.982,5.228,4.565,9.684,8.881,12.794,9.955,7.175,27.512,12.782,38.268,4.2,2.955-2.357,7.961-.253,9.595-3.662,3.229-6.735,7.031-14.66,7.6-22.1.148-1.93-1.19-1.425-1.227-3.361-.017-.865-.368-7.306.586-7.31s-.241-.865,0,0a3.5,3.5,0,0,1-.319-2.5,7.3,7.3,0,0,1,1.745-3.076,19.607,19.607,0,0,1,7.413-5.606c1.495-.737,9.645-1.871,11.01-.816.317-3.744-3.613-7.6-5.477-10.567a90.2,90.2,0,0,0-7.744-10.554c-3.8-4.459-8.416-8.748-14.19-9.75-4.353-.755-8.768.465-13.11,1.28C449.485,653.13,437.133,652.317,425.074,653.939Z" transform="translate(-389.947 -649.367)" fill="#202a3d"/>
        <path id="Path_523" data-name="Path 523" d="M583.659,706.169" transform="translate(-486.816 -677.772)" fill="#202a3d" stroke="#db0016" stroke-miterlimit="10" stroke-width="1"/>
      </g>
      <g id="phone" transform="translate(305.48 491.124)">
        <path id="Path_524" data-name="Path 524" d="M597.214,732.852l-.03.04a4.506,4.506,0,0,0-1.6-.29c-.42-.05-.835-.09-1.255-.13-1.015-.1-2.035-.18-3.05-.265-2.165-.175-4.324-.345-6.489-.465-3.435-.185-6.349-.4-11.558-.74a5.356,5.356,0,0,0-6,4.279l-3.6,21.967-3.7,24.3v1.53c-1.2-.19-2.395-.375-3.595-.565a403.8,403.8,0,0,1,7.644-48.773,6.809,6.809,0,0,1,1.565-3.565c1.39-1.34,3.575-1.26,5.5-1.09q5.759.51,11.513,1.025,2.88.255,5.759.5a35.788,35.788,0,0,1,3.984.47,19.408,19.408,0,0,1,3.8,1.165,6.5,6.5,0,0,1,.595.285C596.859,732.632,597.039,732.737,597.214,732.852Z" transform="translate(-430.922 -679.579)" fill="#dbdbda" stroke="#d3d3d3" stroke-miterlimit="10" stroke-width="1"/>
        <path id="Path_525" data-name="Path 525" d="M601.2,735.177a1.716,1.716,0,0,0-.425-.295,4.5,4.5,0,0,0-1.6-.29c-.42-.05-.835-.09-1.255-.13-1.015-.095-2.035-.18-3.05-.265-2.165-.175-4.324-.345-6.489-.465-3.435-.185-6.349-.4-11.558-.74a5.356,5.356,0,0,0-6,4.279l-3.6,21.967-3.7,24.3v1.53h.005q12.958,2.025,25.936,3.95c1.07.155,2.3.27,3.1-.45a3.74,3.74,0,0,0,.94-2.15q4.739-23.742,8.244-47.7C601.92,737.576,602.145,736.062,601.2,735.177Z" transform="translate(-434.518 -681.569)" fill="#202020"/>
        <path id="Path_526" data-name="Path 526" d="M623.277,841.7" transform="translate(-464.4 -735.939)" fill="none" stroke="#db0016" stroke-miterlimit="10" stroke-width="1"/>
        <line id="Line_144" data-name="Line 144" x1="13.323" transform="translate(264.149)" fill="none"/>
        <line id="Line_145" data-name="Line 145" x1="3.824" fill="none"/>
      </g>
      <g id="arm1" transform="translate(348 549.111)">
        <path id="Path_527" data-name="Path 527" d="M391.255,757.738c-1.507,5.257-.572,11.074,1.96,16.192,3.163,6.395,9.168,11.061,15.757,13.8a59.659,59.659,0,0,0,18.239,4.037c10.8.843,21.575-.545,31.352,5.145,2.142,1.247,4.177,2.741,6.529,3.525,3.542,1.181,7.4.631,11.091.069l16.907-2.577c3.178-.484,6.784-1.25,8.374-4.043a10.555,10.555,0,0,0,1.034-4.371q.739-8.564.97-17.16a2.075,2.075,0,0,0-.206-1.189c-.4-.619-1.279-.639-2.012-.571-9.393.87-18.249,4.641-26.813,8.6a15.456,15.456,0,0,0,8.2-14.9L468.2,775.648a12.065,12.065,0,0,1-2.818,1.821c-4.313,1.758-9.8-.641-13.989-1.793-7.332-2.015-14.871-3.847-21.792-7.055q-2.04-.95-4.01-2.041c-.85-.473-2.958-2.349-3.86-2.349a7.428,7.428,0,0,1-2.752-2.907c-.816-1.758-.558-3.8-.9-5.663a12.128,12.128,0,0,0-2.218-5.436c-2.479-3.1-6.816-3.955-10.784-4.078-4.246-.132-7.453,1.74-10.2,4.913A17.492,17.492,0,0,0,391.255,757.738Z" transform="translate(-390.531 -746.14)" fill="#ffb818"/>
      </g>
      <g id="arm2" transform="translate(452.551 549.05)">
        <path id="Path_528" data-name="Path 528" d="M599.662,787.095l1.74-24.3a4.45,4.45,0,0,1,1.589-3.3c1.049-.758,2.414-.517,3.64-.635,4.177-.4,7.669-1.813,11.61-3.205l1.47-9.64c1.307,1.877,2.969,3.755,4.276,5.631,1.957,2.811,4.3,5.558,5.277,8.887a17.917,17.917,0,0,1-2.876,15.4,26.235,26.235,0,0,1-10.04,8.394c-3.57,1.677-7.14,2.043-10.994,2.335Z" transform="translate(-599.662 -746.018)" fill="#ffb818"/>
      </g>
      <g id="Layer_19" data-name="Layer 19" transform="translate(448.515 428.252)">
        <path id="Path_529" data-name="Path 529" d="M633.1,504.39h-39.64a1.877,1.877,0,0,0-1.875,1.88v3.155a1.877,1.877,0,0,0,1.875,1.88h3.355a10.823,10.823,0,0,0,3.734,8.809c2.77,2.335,6.319,2.085,9.609,2.025,4.044-.075,8.089-.045,12.138-.16,7.724-.22,8.249-7.684,8.144-10.674h2.66a1.877,1.877,0,0,0,1.875-1.88V506.27A1.877,1.877,0,0,0,633.1,504.39Z" transform="translate(-591.59 -504.39)" fill="#dedede"/>
      </g>
      <g id="Layer_20" data-name="Layer 20" transform="translate(464.369 445.9)">
        <path id="Path_530" data-name="Path 530" d="M625.084,539.737v4.97H623.3v6.584h12.022v-6.584h-1.938v-5.016" transform="translate(-623.302 -539.691)" fill="#c4c3c3"/>
      </g>
      <g id="Layer_21" data-name="Layer 21" transform="translate(448.485 365.651)">
        <g id="Rectangle_414" data-name="Rectangle 414" transform="translate(0 0)" fill="#e0eff5" stroke="#1e1e1e" stroke-linejoin="round" stroke-width="3">
          <rect width="41.169" height="47.494" rx="6.36" stroke="none"/>
          <rect x="-1.5" y="-1.5" width="44.169" height="50.494" rx="7.86" fill="none"/>
        </g>
        <path id="Path_531" data-name="Path 531" d="M627.866,559.574c-.092,6.506,5.52,13.7,11.962,13.7,3.2,0,6.369-.93,8.341-3.6,2.082-2.819,2.875-6.937,2.876-10.388a3.086,3.086,0,0,0-.571-1.955c-.953-1.179-3.233-1.315-4.556-.781a3.69,3.69,0,0,0-2.155,3.547,9.818,9.818,0,0,1-.286,2.457,3.738,3.738,0,0,1-4.356,3c-2.595-.5-3.742-2.978-3.906-5.986" transform="translate(-609.7 -467.725)" fill="#acabab"/>
        <path id="Path_532" data-name="Path 532" d="M595.276,404.7" transform="translate(-593.403 -391.939)" fill="none" stroke="#fff" stroke-miterlimit="10" stroke-width="1"/>
        <path id="Path_533" data-name="Path 533" d="M604.723,379.17,591.53,390.328V382.35a3.181,3.181,0,0,1,3.18-3.18Z" transform="translate(-591.53 -379.17)" fill="#fff" opacity="0.35"/>
        <path id="Path_534" data-name="Path 534" d="M652.362,439.3v10.244l-8.874,7.189H630.85Z" transform="translate(-611.193 -409.239)" fill="#fff" opacity="0.35"/>
        <path id="Path_535" data-name="Path 535" d="M629.5,380.51,591.53,415.85V398.827l21.127-19.657h15.6Z" transform="translate(-591.53 -379.17)" fill="#fff" opacity="0.35"/>
        <rect id="Rectangle_415" data-name="Rectangle 415" width="5.184" height="6.525" transform="translate(19.262 56.06)" fill="#dedede"/>
        <path id="Rectangle_416" data-name="Rectangle 416" d="M2.592,0h0A2.592,2.592,0,0,1,5.184,2.592V4.558a0,0,0,0,1,0,0H0a0,0,0,0,1,0,0V2.592A2.592,2.592,0,0,1,2.592,0Z" transform="translate(19.262 53.004)" fill="#dedede"/>
        <rect id="Rectangle_417" data-name="Rectangle 417" width="6.581" height="1.151" transform="translate(18.137 55.109)" fill="#c9c9c9"/>
        <rect id="Rectangle_418" data-name="Rectangle 418" width="5.229" height="1.151" transform="translate(22.208 57.387)" fill="#c9c9c9"/>
      </g>
      <g id="Layer_17" data-name="Layer 17" transform="translate(444.216 466.06)">
        <path id="Path_536" data-name="Path 536" d="M616.76,586.564a4.492,4.492,0,0,0-1.872,1.256c-2.306,2.712.776,7.065,4.277,7.708s7.017-.8,10.563-1.114c6.539-.573,13.108,2.728,19.538,1.407,6.51-1.338,12.787-7.256,18.849-4.533,5.151,2.314,5.791,10.15,2.14,14.458s-9.925,5.483-15.527,4.773c-2.941-.373-5.837-1.183-8.8-1.206-7.253-.055-12.468,4.852-18.922,6.922a34.633,34.633,0,0,1-15.63,1.477c-5.062-.856-9.735-4.6-15.08-3.321-1.944.464-3.658,1.589-5.517,2.323-6.652,2.624-8.372-4.216-7.626-9.494,1.843-13.023,14.558-9.633,23.556-11.785a5.533,5.533,0,0,0,2.665-1.3c2.925-2.9-.078-9.645,3.772-11.106,1.169-.443,2.505-.069,3.712-.395,2.25-.609,4.223-3.53,6.223-2.334,1.959,1.172.249,4.352-1.906,5.106C619.758,585.9,618.13,586.037,616.76,586.564Z" transform="translate(-582.989 -580.016)" fill="#0090df" opacity="0.54"/>
        <path id="Path_537" data-name="Path 537" d="M628.34,607.187c1.8.452,3.62-.274,5.448-.359,3.372-.157,6.741,1.874,10.06,1.292,3.361-.589,6.625-3.769,9.735-2.078,2.643,1.437,2.933,5.876,1.031,8.214s-5.141,2.841-8.024,2.3a36.31,36.31,0,0,0-4.529-.9c-3.737-.216-6.449,2.42-9.785,3.423a16.232,16.232,0,0,1-8.06.435c-2.6-.612-4.993-2.843-7.754-2.259a20.07,20.07,0,0,0-2.854,1.17c-3.44,1.311-4.292-2.593-3.882-5.552,1.015-7.3,7.549-5.065,12.2-6.05a2.633,2.633,0,0,0,1.38-.665" transform="translate(-596.311 -592.786)" fill="#0090df" opacity="0.54"/>
      </g>
    </g>
    <path id="Path_603" data-name="Path 603" d="M2027,3438.6s23.63,10.968,28.482,5.931c2.062-2.141,1.74-2.4,1.555-3.4a6.163,6.163,0,0,0-.443-1.589l-2.764-7.484-19.108-3.9Z" transform="translate(-1747 -3093)" opacity="0.1"/>
    <path id="Subtraction_8" data-name="Subtraction 8" d="M-1746.672-3075.276v0a14.552,14.552,0,0,1-.327-3.067,14.39,14.39,0,0,1,4.394-10.362A15.083,15.083,0,0,1-1732-3093a15.082,15.082,0,0,1,10.606,4.292,14.391,14.391,0,0,1,4.393,10.362,14.413,14.413,0,0,1-.328,3.063,10.137,10.137,0,0,0-5.175-5.408,20.853,20.853,0,0,0-9.5-2.165,20.856,20.856,0,0,0-9.5,2.165,10.122,10.122,0,0,0-5.174,5.411Z" transform="translate(2027 3422)" fill="#4a4a4a"/>
    <g id="Subtraction_9" data-name="Subtraction 9" transform="translate(2027 3431)" fill="none">
      <path d="M-1746.9-3083.5h0a5.085,5.085,0,0,1-.1-1c0-4.687,6.729-8.5,15-8.5s15,3.813,15,8.5a4.928,4.928,0,0,1-.1,1c-.89-4.273-7.294-7.5-14.9-7.5S-1746.013-3087.776-1746.9-3083.5Z" stroke="none"/>
      <path d="M -1731.137329101562 -3091.986328125 C -1731.42333984375 -3091.99560546875 -1731.710815429688 -3092.00048828125 -1731.999755859375 -3092.00048828125 C -1732.28759765625 -3092.00048828125 -1732.573974609375 -3091.995849609375 -1732.858764648438 -3091.986328125 C -1732.5732421875 -3091.995361328125 -1732.286987304688 -3091.999755859375 -1731.999755859375 -3091.999755859375 C -1731.71142578125 -3091.999755859375 -1731.423828125 -3091.9951171875 -1731.137329101562 -3091.986328125 M -1746.897216796875 -3083.5 L -1746.8994140625 -3083.5 C -1746.96630859375 -3083.832763671875 -1747 -3084.169189453125 -1747 -3084.499755859375 C -1747 -3089.18701171875 -1740.27099609375 -3093.00048828125 -1731.999755859375 -3093.00048828125 C -1723.72900390625 -3093.00048828125 -1717.000244140625 -3089.18701171875 -1717.000244140625 -3084.499755859375 C -1717.000244140625 -3084.16796875 -1717.034423828125 -3083.8330078125 -1717.102294921875 -3083.504638671875 C -1717.9921875 -3087.777587890625 -1724.39599609375 -3090.999755859375 -1731.999755859375 -3090.999755859375 C -1739.608154296875 -3090.999755859375 -1746.012939453125 -3087.775634765625 -1746.897216796875 -3083.5 Z" stroke="none" fill="#404040"/>
    </g>
    <path id="Path_601" data-name="Path 601" d="M620.427,500.541a12.67,12.67,0,0,1-3.369,1.584,4.115,4.115,0,0,1-1.134.365,2.92,2.92,0,0,1-.834-.1c-.469-.088-.942-.151-1.408-.249a11.217,11.217,0,0,0-4.864.343A11.586,11.586,0,0,0,605.8,503.9c-2.23,1.4-2.837,2.684-3.474,2.431-.7-.277-.608-2.066-.551-3.178a6.9,6.9,0,0,1,.813-3.356,7.017,7.017,0,0,1,6.519-3.192,9.949,9.949,0,0,0,1.287.168c1.514.042,2.314-.483,3.7-.952a10.374,10.374,0,0,1,5.4-.488c1.516.322,1.907.89,2.029,1.067a2.736,2.736,0,0,1,.087,2.421A3.743,3.743,0,0,1,620.427,500.541Z" transform="translate(-350.489 -132.587)" fill="#333"/>
  </g>
</svg>
