<svg xmlns="http://www.w3.org/2000/svg" xmlns:xlink="http://www.w3.org/1999/xlink" width="338.17" height="323.861" viewBox="0 0 338.17 323.861">
  <defs>
    <filter id="Path_600" x="167.17" y="125.861" width="171" height="198" filterUnits="userSpaceOnUse">
      <feOffset dy="3" input="SourceAlpha"/>
      <feGaussianBlur stdDeviation="15" result="blur"/>
      <feFlood flood-opacity="0.082"/>
      <feComposite operator="in" in2="blur"/>
      <feComposite in="SourceGraphic"/>
    </filter>
  </defs>
  <g id="Group_722" data-name="Group 722" transform="translate(-62.83 -152.139)">
    <g id="Group_675" data-name="Group 675" transform="translate(-201.566 -149.332)" opacity="0.7">
      <path id="Path_566" data-name="Path 566" d="M584.814,693.411a184.418,184.418,0,0,1-15.234,30.483c-4.886,7.589-22.141,33.649-49.286,40.024-24.9,5.85-39.484-9.247-68.076-23.448-78.72-39.1-120-.106-151.785-47.06Z" transform="translate(-18.671 -203.076)" fill="#d3d3d3" opacity="0.25"/>
      <path id="Path_567" data-name="Path 567" d="M566.143,490.335H281.761c-.178-.265-.36-.535-.538-.8a95.679,95.679,0,0,1-7.206-13.2c-17.762-39.112-10.362-87.049,17.514-119.613,7.544-8.814,17.1-16.779,28.561-18.572,8.592-1.344,17.305.916,26,1.126,18.985.46,36.93-8.879,51.976-20.466,10.974-8.451,22.825-18.838,36.573-17.156,10.871,1.329,19.028,9.722,26.631,16.825,9.329,8.715,18.816,17.245,28.6,25.451q24.309,20.4,50.526,38.362c14.264,9.773,29.131,19.4,33.657,37.3C580.309,444.389,573.838,470.714,566.143,490.335Z" transform="translate(0 0)" fill="#f1f1f1" opacity="0.25"/>
      <path id="Path_568" data-name="Path 568" d="M714.221,551.73a3.077,3.077,0,0,1-3.079,3.079h-9.213V551.73Z" transform="translate(-226.698 -129.667)" fill="#735538"/>
      <path id="Path_569" data-name="Path 569" d="M714.221,548.419H701.928V545.34h9.213A3.079,3.079,0,0,1,714.221,548.419Z" transform="translate(-226.698 -126.356)" fill="#7e5c3a"/>
      <path id="Path_570" data-name="Path 570" d="M714.221,570.428a3.076,3.076,0,0,1-3.079,3.079h-9.213v-3.079Z" transform="translate(-226.698 -139.355)" fill="#735538"/>
      <path id="Path_571" data-name="Path 571" d="M714.221,567.117H701.928v-3.079h9.213A3.079,3.079,0,0,1,714.221,567.117Z" transform="translate(-226.698 -136.044)" fill="#7e5c3a"/>
      <path id="Path_572" data-name="Path 572" d="M714.221,591.8a3.076,3.076,0,0,1-3.079,3.079h-9.213V591.8Z" transform="translate(-226.698 -150.427)" fill="#735538"/>
      <path id="Path_573" data-name="Path 573" d="M714.221,588.486H701.928v-3.079h9.213A3.079,3.079,0,0,1,714.221,588.486Z" transform="translate(-226.698 -147.116)" fill="#7e5c3a"/>
      <g id="Group_671" data-name="Group 671" transform="translate(421.183 353.638)">
        <path id="Path_574" data-name="Path 574" d="M644.592,420.448v49.209H591.268V420.448a9.218,9.218,0,0,1,9.218-9.218h34.887A9.218,9.218,0,0,1,644.592,420.448Z" transform="translate(-590.545 -410.507)" fill="#d8d8d8"/>
        <path id="Path_575" data-name="Path 575" d="M644.538,469.6H589.768V419.671a9.952,9.952,0,0,1,9.941-9.941H634.6a9.952,9.952,0,0,1,9.941,9.941Zm-53.324-1.446h51.878V419.671a8.505,8.505,0,0,0-8.5-8.5H599.709a8.505,8.505,0,0,0-8.5,8.5Z" transform="translate(-589.768 -409.73)" fill="#b8b8b8"/>
      </g>
      <g id="Group_672" data-name="Group 672" transform="translate(421.183 412.065)">
        <path id="Path_576" data-name="Path 576" d="M644.592,532.48v29.066a9.217,9.217,0,0,1-9.218,9.213H600.486a9.217,9.217,0,0,1-9.218-9.213V532.48Z" transform="translate(-590.545 -531.757)" fill="#d8d8d8"/>
        <path id="Path_577" data-name="Path 577" d="M634.6,570.706H599.709a9.95,9.95,0,0,1-9.941-9.936V530.98h54.769v29.789A9.95,9.95,0,0,1,634.6,570.706Zm-43.383-38.28v28.344a8.5,8.5,0,0,0,8.5,8.491H634.6a8.5,8.5,0,0,0,8.5-8.491V532.426Z" transform="translate(-589.768 -530.98)" fill="#b8b8b8"/>
      </g>
      <g id="Group_673" data-name="Group 673" transform="translate(421.906 354.36)">
        <path id="Path_578" data-name="Path 578" d="M591.268,420.448v49.209h7.753c.043-18.918.058-41.2-.087-46.5-.26-9.613,11.7-11.926,11.7-11.926H600.486A9.218,9.218,0,0,0,591.268,420.448Z" transform="translate(-591.268 -411.23)" fill="#fff" opacity="0.37"/>
        <path id="Path_579" data-name="Path 579" d="M591.268,532.48v29.066a9.217,9.217,0,0,0,9.218,9.213H610.63c-13.261-.959-11.7-9.7-11.7-9.7s.053-13.179.087-28.585Z" transform="translate(-591.268 -474.053)" fill="#fff" opacity="0.37"/>
      </g>
      <path id="Path_580" data-name="Path 580" d="M681.11,420.448v49.209h-7.753c-.043-18.918-.058-41.2.087-46.5.26-9.613-11.695-11.926-11.695-11.926h10.143A9.218,9.218,0,0,1,681.11,420.448Z" transform="translate(-205.88 -56.87)" fill="#bebdbd" opacity="0.37"/>
      <path id="Path_581" data-name="Path 581" d="M612.944,554.1l3.036,0v12.911h3.612l-.3,1.74h-6.345Z" transform="translate(-180.593 -130.893)" fill="#7b7b7b"/>
      <path id="Path_582" data-name="Path 582" d="M681.11,532.48v29.066a9.217,9.217,0,0,1-9.218,9.213H661.748c13.261-.959,11.695-9.7,11.695-9.7s-.053-13.179-.087-28.585Z" transform="translate(-205.88 -119.693)" fill="#bebdbd" opacity="0.37"/>
      <path id="Path_583" data-name="Path 583" d="M625.1,553.872c.124-.543,3.938.133,4.4.233,4.129.89,6.186,4.769,6.422,5.17a12.864,12.864,0,0,1-.436,13.158,10.791,10.791,0,0,1-6.216,4.791c-1.948.49-4.729.485-5.08-.479-.516-1.42,5.388-2.64,6.724-6.993,1.814-5.912-7.676-14.793-4.908-14.792C626.54,554.961,625.058,554.06,625.1,553.872Z" transform="translate(-186.404 -130.668)" fill="#7b7b7b"/>
      <path id="Path_584" data-name="Path 584" d="M622.061,655.461q1.7-1.7,3.407-3.383a2.83,2.83,0,0,0,1.034-2.685c-.131-15.4-.035-30.81-.035-46.214V601.74h-7.224Z" transform="translate(-183.857 -155.578)" fill="#7b7b7b"/>
      <path id="Path_585" data-name="Path 585" d="M610.179,578.473v49.96c-1.966,5.84-5.917,0-5.917,0l-1.417-31.177-.034-.761q-.029-8.883-.048-17.767a12.841,12.841,0,0,1-6.587-4.231,13.251,13.251,0,0,1-2.79-8.5c-.015-1.85-.048-5.594,2.756-8.616a10.364,10.364,0,0,1,3.942-2.612h0a12.048,12.048,0,0,1,2.723-.67v14.654h6.341V554.1s8.953.843,9.874,11.073S610.179,578.473,610.179,578.473Z" transform="translate(-170.458 -130.895)" fill="#bababa"/>
      <path id="Path_586" data-name="Path 586" d="M507.605,492.377c-7.547-3.169-13.57-10.685-19.125-16.018-7.118-6.835-15.915-12.436-25.924-13.474-6.364-.66-11.4,1.176-17.157,3.093,3.381-17.5,25.193-25.865,40.3-18.978,9.1,4.148,13.533,12.621,11.555,22.383-.351,1.733-1.758,4.251-1.3,5.72.76,2.424,5.7,6.04,7.638,7.724a47.78,47.78,0,0,0,8.992,6.37c1.767.92,5.721,2.188,2.133,4.111a4.881,4.881,0,0,1-3.214.259A19.5,19.5,0,0,1,507.605,492.377Z" transform="translate(-93.783 -74.155)" fill="#2c2c2c"/>
      <path id="Path_587" data-name="Path 587" d="M523.329,515.787a68.527,68.527,0,0,1-4.014,10.9,34.935,34.935,0,0,1-7.474,10.861,17.731,17.731,0,0,1-5.074,3.392c-1.552.66-3.537.583-5.276.814,8.139-8.254,10.033-31.09,10.461-42.93.54.4,1.065.819,1.585,1.238a76.406,76.406,0,0,1,10.929,11.083C524.867,511.633,523.484,515.242,523.329,515.787Z" transform="translate(-122.846 -102.252)" fill="#f5ab1a"/>
      <path id="Path_588" data-name="Path 588" d="M467.849,489.39c-.429,11.84-2.323,34.675-10.461,42.93a5.924,5.924,0,0,0-2.438.761c-3.5,2.25-5.754,8.047-8.438,11.213-5.638,6.655-14.374,8.866-21.1,5.773-6.366-2.925-8.457-9.478-8.823-10.7,2.964-4.674,6-9.276,8.948-13.945,2.727-4.322.66-8.471.207-13.136-.766-7.951-.525-20.248,4.154-27.173,1.7-2.511,5.676-3.392,8.635-3.961,10.052-1.932,19.925,1.561,28.079,7.334C467.03,488.782,467.445,489.086,467.849,489.39Z" transform="translate(-78.855 -92.822)" fill="#ffb818"/>
      <path id="Path_589" data-name="Path 589" d="M570.947,647.5c-.1,1.662-.135,3.653-.255,5.72a.511.511,0,0,0-.01.1c-.236,3.894-.785,8.033-2.655,10.722-1.73,2.491-5.715,4.313-8.158,6.062a88.185,88.185,0,0,0-8.6,6.77c-15.136,13.936-22.012,35.283-38.8,47.753a8.535,8.535,0,0,1-3.407,1.744c-2.443.463-7.532-3.108-9.059-5.3-3.074-4.4-2.886-11.869-3.383-16.914,0,0,24.373-16.441,24.542-17.911l.545,3.8q4.25-4.98,8.505-9.96,3.3-3.867,6.611-7.744c1.961-2.294,5.055-4.809,5.58-7.85,1.21-6.987,3.417-17.723,10.114-21.66.386,2.024.231,4.212.626,6.3.366,1.9,1.552,3.06,3.585,2.462a7.989,7.989,0,0,0,2.525-1.455,71.082,71.082,0,0,0,5.84-4.992c1.219-1.161,2.886-2.462,4.4-1.725C570.88,644.1,571.039,645.967,570.947,647.5Z" transform="translate(-120.326 -176.873)" fill="#ffb818"/>
      <path id="Path_590" data-name="Path 590" d="M306.842,632.144c3.616-15.314,10.544-33.688,25.676-40.931l.444-.209c8.135-3.83,18.1-3.856,26.654-1.42a10.818,10.818,0,0,0,4.035,9.629,17.459,17.459,0,0,0,10.072,3.271,22.267,22.267,0,0,0,13-3.223c4.854-3.13,13.145,4.367,16.88,7.05,4.045,2.907,8.134,5.853,11.361,9.648,5.767,6.782,5.863,15.294,6.615,23.741a163.34,163.34,0,0,1,.626,17.149c-.11,6.744-5.672,13.522-11.381,16.486-2.658,1.38-17.8,5.049-18.191-.253a46.838,46.838,0,0,1,.178-8.825c-2.4,9.473-1.938,32.029-19.086,36.42-9.951,1.675-33.744,2.9-38.313,2.817C322.659,703.254,290.971,706.169,306.842,632.144Z" transform="translate(-19.379 -148.414)" fill="#f68a15"/>
      <path id="Path_591" data-name="Path 591" d="M607.247,769.122" transform="translate(-177.641 -242.304)" fill="#f68a15"/>
      <path id="Path_592" data-name="Path 592" d="M604.828,792.34" transform="translate(-176.388 -254.334)" fill="#f68a15"/>
      <g id="Group_674" data-name="Group 674" transform="translate(443.35 418.922)">
        <path id="Path_593" data-name="Path 593" d="M640.9,550.472H638.8a2.231,2.231,0,1,1,0-4.462h4.419" transform="translate(-636.183 -545.625)" fill="#c1c1c1"/>
        <path id="Path_594" data-name="Path 594" d="M640.491,550.443h-2.106a2.616,2.616,0,1,1,0-5.232H642.8v.77h-4.419a1.846,1.846,0,1,0,0,3.692h2.106Z" transform="translate(-635.769 -545.211)" fill="#b8b8b8"/>
      </g>
      <path id="Path_595" data-name="Path 595" d="M647.91,550.443h-2.342v-.77h2.342a1.846,1.846,0,0,0,0-3.692l-.029-.77h.029a2.616,2.616,0,0,1,0,5.232Z" transform="translate(-197.496 -126.289)" fill="#b8b8b8"/>
      <ellipse id="Ellipse_150" data-name="Ellipse 150" cx="2.313" cy="0.524" rx="2.313" ry="0.524" transform="translate(445.759 421.014)" fill="#119ede"/>
      <path id="Path_596" data-name="Path 596" d="M673.394,611.92" transform="translate(-211.914 -160.853)" fill="#d8d8d8" stroke="#b8b8b8" stroke-miterlimit="10" stroke-width="3"/>
      <path id="Path_597" data-name="Path 597" d="M574.029,669.026a.86.86,0,0,1,.261.122c1.639,1.144-1.137,7.19-2.006,8.44-1.73,2.491-5.715,4.313-8.158,6.062a88.177,88.177,0,0,0-8.6,6.77c-15.136,13.936-22.012,35.283-38.8,47.753a8.538,8.538,0,0,1-3.409,1.745c-2.866.54-7.339-2.759-8.481-5.041,9.72-6.725,18.017-12.968,25.55-22.344,7.222-8.988,13.625-18.67,21.62-26.978A94.972,94.972,0,0,1,566.76,673.07C567.9,672.287,572.308,668.54,574.029,669.026Z" transform="translate(-124.583 -190.419)" fill="#f5ab1a"/>
      <path id="Path_598" data-name="Path 598" d="M626.111,554.1" transform="translate(-187.415 -130.893)" fill="#7b7b7b"/>
      <path id="Path_599" data-name="Path 599" d="M608.213,604.5s-2.92,1.166-5.368-3.744l-.034-.761q-.029-8.883-.048-17.767a12.841,12.841,0,0,1-6.587-4.231,13.251,13.251,0,0,1-2.79-8.5c-.015-1.85-.048-5.594,2.756-8.616C597.395,559.534,608.213,604.5,608.213,604.5Z" transform="translate(-170.458 -134.391)" fill="#d8d8d8" opacity="0.4"/>
    </g>
    <g transform="matrix(1, 0, 0, 1, 62.83, 152.14)" filter="url(#Path_600)">
      <path id="Path_600-2" data-name="Path 600" d="M0,0H81V108H0Z" transform="translate(212.17 167.86)" fill="#fff"/>
    </g>
    <circle id="ben-parker-OhKElOkQ3RE-unsplash" cx="9.5" cy="9.5" r="9.5" transform="translate(306 333)" fill="#fff"/>
    <text id="David_Moffat" data-name="David Moffat" transform="translate(302 365)" fill="#202a3d" font-size="5" font-family="HelveticaNeue-Medium, Helvetica Neue" font-weight="500"><tspan x="0" y="0">David Moffat</tspan></text>
    <text id="_Great_service_" data-name="“Great service!”" transform="translate(287 403)" fill="#8e99ad" font-size="8" font-family="HelveticaNeue-Medium, Helvetica Neue" font-weight="500"><tspan x="0" y="8">“Great service!”</tspan></text>
    <g id="Subtraction_7" data-name="Subtraction 7" transform="translate(1602 3426)" fill="#fff" opacity="0.577">
      <path d="M -1292.43505859375 -3075.449462890625 C -1294.989868164062 -3077.334716796875 -1296.499877929688 -3080.306884765625 -1296.499877929688 -3083.5 C -1296.499877929688 -3089.01416015625 -1292.013793945312 -3093.500244140625 -1286.499633789062 -3093.500244140625 C -1280.985961914062 -3093.500244140625 -1276.500244140625 -3089.01416015625 -1276.500244140625 -3083.5 C -1276.500244140625 -3080.307373046875 -1278.010498046875 -3077.335693359375 -1280.564819335938 -3075.45068359375 C -1281.841430664062 -3077.344482421875 -1284.065673828125 -3078.5 -1286.499633789062 -3078.5 C -1288.935302734375 -3078.5 -1291.159912109375 -3077.343994140625 -1292.43505859375 -3075.449462890625 Z" stroke="none"/>
      <path d="M -1292.534545898438 -3076.16064453125 C -1291.133666992188 -3077.9345703125 -1288.912353515625 -3079 -1286.499633789062 -3079 C -1284.088500976562 -3079 -1281.867431640625 -3077.93505859375 -1280.465576171875 -3076.16162109375 C -1278.279663085938 -3077.958984375 -1277.000244140625 -3080.635986328125 -1277.000244140625 -3083.5 C -1277.000244140625 -3088.738525390625 -1281.261596679688 -3093.000244140625 -1286.499633789062 -3093.000244140625 C -1291.738037109375 -3093.000244140625 -1295.999877929688 -3088.738525390625 -1295.999877929688 -3083.5 C -1295.999877929688 -3080.635498046875 -1294.720581054688 -3077.958251953125 -1292.534545898438 -3076.16064453125 M -1292.28662109375 -3074.735595703125 L -1292.28759765625 -3074.736328125 C -1295.23828125 -3076.68994140625 -1296.999877929688 -3079.966064453125 -1296.999877929688 -3083.5 C -1296.999877929688 -3089.289794921875 -1292.28955078125 -3094.000244140625 -1286.499633789062 -3094.000244140625 C -1280.710205078125 -3094.000244140625 -1276.000244140625 -3089.289794921875 -1276.000244140625 -3083.5 C -1276.000244140625 -3079.966064453125 -1277.761962890625 -3076.6904296875 -1280.712890625 -3074.7373046875 C -1281.834350585938 -3076.75 -1284.051025390625 -3078 -1286.499633789062 -3078 C -1288.94921875 -3078 -1291.16650390625 -3076.74951171875 -1292.2861328125 -3074.736572265625 L -1292.28662109375 -3074.735595703125 Z" stroke="none" fill="#707070"/>
    </g>
    <g id="Ellipse_151" data-name="Ellipse 151" transform="translate(312 339)" fill="#fff" stroke="#707070" stroke-width="1" opacity="0.577">
      <circle cx="3.5" cy="3.5" r="3.5" stroke="none"/>
      <circle cx="3.5" cy="3.5" r="3" fill="none"/>
    </g>
    <g id="Group_676" data-name="Group 676" transform="translate(288.613 379.74)">
      <path id="Path_306" data-name="Path 306" d="M1042.644,253.886a.18.18,0,0,0-.142-.123l-2.827-.436-1.243-2.575a.177.177,0,0,0-.159-.1h0a.178.178,0,0,0-.159.1l-1.289,2.554-2.834.385a.179.179,0,0,0-.1.3l1.217,1.208.814.807-.51,2.815a.178.178,0,0,0,.07.174.176.176,0,0,0,.188.015l2.544-1.308,2.518,1.354a.173.173,0,0,0,.085.021.171.171,0,0,0,.1-.033.176.176,0,0,0,.073-.173l-.457-2.824,2.065-1.979A.173.173,0,0,0,1042.644,253.886Z" transform="translate(-999.77 -250.542)" fill="#ffb627"/>
      <path id="Path_308" data-name="Path 308" d="M1042.644,253.886a.18.18,0,0,0-.142-.123l-2.827-.436-1.243-2.575a.177.177,0,0,0-.159-.1h0a.178.178,0,0,0-.159.1l-1.289,2.554-2.834.385a.179.179,0,0,0-.1.3l1.217,1.208.814.807-.51,2.815a.178.178,0,0,0,.07.174.176.176,0,0,0,.188.015l2.544-1.308,2.518,1.354a.173.173,0,0,0,.085.021.171.171,0,0,0,.1-.033.176.176,0,0,0,.073-.173l-.457-2.824,2.065-1.979A.173.173,0,0,0,1042.644,253.886Z" transform="translate(-1011.125 -250.542)" fill="#ffb627"/>
      <path id="Path_309" data-name="Path 309" d="M1042.644,253.886a.18.18,0,0,0-.142-.123l-2.827-.436-1.243-2.575a.177.177,0,0,0-.159-.1h0a.178.178,0,0,0-.159.1l-1.289,2.554-2.834.385a.179.179,0,0,0-.1.3l1.217,1.208.814.807-.51,2.815a.178.178,0,0,0,.07.174.176.176,0,0,0,.188.015l2.544-1.308,2.518,1.354a.173.173,0,0,0,.085.021.171.171,0,0,0,.1-.033.176.176,0,0,0,.073-.173l-.457-2.824,2.065-1.979A.173.173,0,0,0,1042.644,253.886Z" transform="translate(-1022.48 -250.542)" fill="#ffb627"/>
      <path id="Path_310" data-name="Path 310" d="M1042.644,253.886a.18.18,0,0,0-.142-.123l-2.827-.436-1.243-2.575a.177.177,0,0,0-.159-.1h0a.178.178,0,0,0-.159.1l-1.289,2.554-2.834.385a.179.179,0,0,0-.1.3l1.217,1.208.814.807-.51,2.815a.178.178,0,0,0,.07.174.176.176,0,0,0,.188.015l2.544-1.308,2.518,1.354a.173.173,0,0,0,.085.021.171.171,0,0,0,.1-.033.176.176,0,0,0,.073-.173l-.457-2.824,2.065-1.979A.173.173,0,0,0,1042.644,253.886Z" transform="translate(-1033.836 -250.542)" fill="#ffb627"/>
      <path id="Path_307" data-name="Path 307" d="M981.411,256.2a.227.227,0,0,0-.182-.156l-2.8-.433-1.232-2.553,0-.005a.224.224,0,0,0-.013-.021l-.011-.017-.015-.016-.016-.016-.016-.012-.021-.013-.006,0-.013,0-.023-.009-.02,0-.023,0h-.044l-.02,0-.023.005-.02.007-.015.005-.006,0-.018.011-.019.013-.015.014-.017.018-.011.015a.254.254,0,0,0-.014.022l0,.005-1.277,2.531-2.808.382a.227.227,0,0,0-.129.386l2.012,2-.5,2.789a.227.227,0,0,0,.224.267.225.225,0,0,0,.1-.025l2.521-1.3,2.5,1.341a.227.227,0,0,0,.332-.236l-.453-2.8,2.047-1.96A.227.227,0,0,0,981.411,256.2ZM978.9,258.15a.227.227,0,0,0-.067.2l.4,2.462-2.2-1.18-.018-.007-.022-.009-.025-.005-.018,0h-.023l.053-5.933,1.084,2.246a.226.226,0,0,0,.17.126l2.464.381Z" transform="translate(-927.135 -252.934)" fill="#ffb627"/>
    </g>
  </g>
</svg>
