<svg xmlns="http://www.w3.org/2000/svg" width="191.103" height="121.554" viewBox="0 0 191.103 121.554">
  <g id="Group_730" data-name="Group 730" transform="translate(-111.874 -346.034)">
    <g id="Group_346" data-name="Group 346" transform="translate(-97.136 101.497)" opacity="0.567">
      <path id="Path_170" data-name="Path 170" d="M399.865,273.792a33.594,33.594,0,0,0-1.735-7.371c-.434-1.177-.991-2.354-1.549-3.531a33.667,33.667,0,0,0-7-9.292l-.062-.062a25.438,25.438,0,0,0-3.1-2.6,23.206,23.206,0,0,0-2.23-1.487,32.242,32.242,0,0,0-25.955-3.655,30.33,30.33,0,0,0-12.885,7.5v.062a30.194,30.194,0,0,0-8.734,17.593l-5.7-.186-.062-4.894a13.728,13.728,0,0,0-1.734-7.186,11.2,11.2,0,0,0-1.177-1.8,13.977,13.977,0,0,0-1.3-1.487c-.31-.31-.62-.62-.991-.929a13.622,13.622,0,0,0-4.894-2.726,14.051,14.051,0,0,0-4.832-.681,21.143,21.143,0,0,0-2.974.557,19.341,19.341,0,0,0-5.389,2.478,20.852,20.852,0,0,0-2.292,1.8,14.144,14.144,0,0,0-10.655-5.575l-39.769-1.177a13.347,13.347,0,0,0-9.787,3.779,13.176,13.176,0,0,0-3.965,9.725l.062,5.389-27.318-.867a5.05,5.05,0,0,0-1.92.372,4.632,4.632,0,0,0-1.487.929,4.56,4.56,0,0,0-1.425,3.221v.372a3.114,3.114,0,0,0,.124.744,3.55,3.55,0,0,0,.248.867,7.03,7.03,0,0,0,.929,1.425,2.974,2.974,0,0,0,.681.558,5.127,5.127,0,0,0,2.54.805l27.69.867.062,3.1c0,.743.062,1.487.124,2.23a24.888,24.888,0,0,0,.867,4.274,23.864,23.864,0,0,0,5.575,9.478l.186,15.3v.372a2.64,2.64,0,0,0,.124.681,1.841,1.841,0,0,0,.248.682,2.787,2.787,0,0,0,.372.743,2.7,2.7,0,0,0,.558.681,6.182,6.182,0,0,0,.681.62,4.505,4.505,0,0,0,2.664.805h.124a4.189,4.189,0,0,0,.867-.124,4.423,4.423,0,0,0,3.531-3.531.192.192,0,0,1,.062-.124v-.31a2.111,2.111,0,0,0,.062-.619l-.062-3.9-.062-5.327a20.748,20.748,0,0,0,7,1.425l21.5.619a21.969,21.969,0,0,0,16.23-6.256,22.268,22.268,0,0,0,6.566-16.044v-2.725l13.194.434.186,20.752a11.025,11.025,0,0,1-3.345,8.239,11.347,11.347,0,0,1-5.637,2.973,12.561,12.561,0,0,1-2.664.186,2.114,2.114,0,0,0-.62.062,11.4,11.4,0,0,0-2.54.248,9.769,9.769,0,0,0-2.292.682.228.228,0,0,0-.186.062,13.7,13.7,0,0,0-2.106,1.115.217.217,0,0,1-.124.062,15.545,15.545,0,0,0-1.92,1.611,11.9,11.9,0,0,0-2.416,3.159,15.778,15.778,0,0,0-.805,1.8c-.062.248-.186.5-.248.743a9.908,9.908,0,0,0-.31,1.3,13.13,13.13,0,0,0-.248,2.725l.186,20.257.186,15.672a4.445,4.445,0,0,0,.372,1.8,4.538,4.538,0,0,0,.991,1.425,4.318,4.318,0,0,0,1.487,1.053,4.739,4.739,0,0,0,1.858.372,4.64,4.64,0,0,0,4.584-4.708l-.186-15.61-.186-20.318a3.959,3.959,0,0,1,.681-2.416,5.6,5.6,0,0,1,.558-.62,1.572,1.572,0,0,1,.619-.5,4.29,4.29,0,0,1,1.549-.62,3.818,3.818,0,0,1,.805-.062,20.385,20.385,0,0,0,15.115-5.823,20.98,20.98,0,0,0,4.584-6.814,12.543,12.543,0,0,0,.681-1.982,13.433,13.433,0,0,0,.5-1.858,20.2,20.2,0,0,0,.434-4.336l-.248-20.318v-.062l5.637.186a34.066,34.066,0,0,0,3.531,10.716,30.1,30.1,0,0,0,2.044,3.345c.31.372.558.743.867,1.115.867,1.115,1.734,2.168,2.664,3.159a32.391,32.391,0,0,0,36.3,7.248,4.659,4.659,0,0,0,2.726-3.345,5.2,5.2,0,0,0-.681-3.469,2.7,2.7,0,0,0-.558-.681l-11.894-12.141a4.5,4.5,0,0,1-.248-6.318,4.063,4.063,0,0,1,2.044-1.053,4.722,4.722,0,0,1,4.274,1.363v.062l11.894,12.079a4.593,4.593,0,0,0,7.5-1.239A31.106,31.106,0,0,0,399.865,273.792ZM295.424,291.508a24.006,24.006,0,0,1-1.92,1.611h-.062a18.714,18.714,0,0,1-2.23,1.115,11.769,11.769,0,0,1-2.416.681,10.625,10.625,0,0,1-2.788.248l-21.557-.682a13.971,13.971,0,0,1-9.6-4.46,15.6,15.6,0,0,1-3.1-4.46,13.036,13.036,0,0,1-1.177-5.265l-.062-7.372-.124-10.407a4.163,4.163,0,0,1,1.177-2.973,4.108,4.108,0,0,1,3.035-1.115l39.707,1.177a3.508,3.508,0,0,1,1.115.186,4.645,4.645,0,0,1,2.168,1.3,5,5,0,0,1,1.053,1.487,4.567,4.567,0,0,1,.248.867,4.179,4.179,0,0,1,.124.867v.124l.186,17.717A12.755,12.755,0,0,1,295.424,291.508Zm26.141-21.062-13.194-.372v-1.487a9.531,9.531,0,0,1,8.177-8.3,5.055,5.055,0,0,1,5.018,5.389l.062,4.77Zm69.132,9.725-.062-.062-6.318-6.38v-.062a14.076,14.076,0,0,0-19.451-.434,13.892,13.892,0,0,0,.062,19.451l6.38,6.443a23.637,23.637,0,0,1-21.5-10.159c-6.5-9.23-5.637-21.433,2.044-28.991v-.062a20.854,20.854,0,0,1,7.062-4.522,21.458,21.458,0,0,1,11.708-1.239,20.311,20.311,0,0,1,5.265,1.487h.062a23.391,23.391,0,0,1,4.956,2.788,16.424,16.424,0,0,1,1.611,1.3c.5.434.991.929,1.487,1.363a23.669,23.669,0,0,1,4.027,5.575,20.813,20.813,0,0,1,1.239,2.664,16.6,16.6,0,0,1,.557,1.611,14.655,14.655,0,0,1,.557,2.23,22.359,22.359,0,0,1,.434,4.522C390.821,278.562,390.759,279.367,390.7,280.172Z" transform="translate(0 0)"/>
      <path id="Path_171" data-name="Path 171" d="M399.865,273.792a31.094,31.094,0,0,0-1.735-7.371c-.434-1.177-.991-2.354-1.549-3.531a33.667,33.667,0,0,0-7-9.292l-.062-.062a30.667,30.667,0,0,0-3.1-2.54c-.743-.557-1.487-1.053-2.23-1.549a32.242,32.242,0,0,0-25.955-3.655,30.281,30.281,0,0,0-21.619,25.15l-5.7-.186h-.062v-4.894a13.728,13.728,0,0,0-1.734-7.186,11.2,11.2,0,0,0-1.177-1.8,13.977,13.977,0,0,0-1.3-1.487,7.255,7.255,0,0,0-.991-.929,13.622,13.622,0,0,0-4.894-2.726,12.244,12.244,0,0,0-4.77-.743,16.5,16.5,0,0,0-3.035.619,21.288,21.288,0,0,0-5.389,2.478,20.852,20.852,0,0,0-2.292,1.8,14.144,14.144,0,0,0-10.655-5.575l-39.769-1.177a13.347,13.347,0,0,0-9.787,3.779,13.176,13.176,0,0,0-3.965,9.725l.062,5.389-27.318-.867a5.05,5.05,0,0,0-1.92.372,4.632,4.632,0,0,0-1.487.929,4.56,4.56,0,0,0-1.425,3.221v.372a3.114,3.114,0,0,0,.124.744,3.55,3.55,0,0,0,.248.867,7.03,7.03,0,0,0,.929,1.425,2.974,2.974,0,0,0,.681.558,4.28,4.28,0,0,0,2.54.805l27.69.867.062,3.1c0,.743.062,1.487.124,2.23a24.888,24.888,0,0,0,.867,4.274,23.864,23.864,0,0,0,5.575,9.478l.186,15.3v.372a2.64,2.64,0,0,0,.124.681,1.841,1.841,0,0,0,.248.682,2.787,2.787,0,0,0,.372.743,2.7,2.7,0,0,0,.558.681v.062a2.7,2.7,0,0,0,.681.558,4.505,4.505,0,0,0,2.664.805h.124a4.189,4.189,0,0,0,.867-.124,4.423,4.423,0,0,0,3.531-3.531,1.053,1.053,0,0,0,.062-.434,2.111,2.111,0,0,0,.062-.619l-.062-3.9-.062-5.327a20.748,20.748,0,0,0,7,1.425l21.5.619a22.511,22.511,0,0,0,11.026-2.478,22.12,22.12,0,0,0,5.2-3.717v-.062a22.268,22.268,0,0,0,6.566-16.044l-.062-2.725h.062l13.194.434.186,20.752a11.025,11.025,0,0,1-3.345,8.239,11.347,11.347,0,0,1-5.637,2.973,12.53,12.53,0,0,1-2.664.248h-.62a11.4,11.4,0,0,0-2.54.248,9.769,9.769,0,0,0-2.292.682.228.228,0,0,0-.186.062,13.7,13.7,0,0,0-2.106,1.115.217.217,0,0,1-.124.062,15.545,15.545,0,0,0-1.92,1.611h-.062a13.12,13.12,0,0,0-2.354,3.159,15.778,15.778,0,0,0-.805,1.8c-.062.248-.186.5-.248.743a9.908,9.908,0,0,0-.31,1.3,13.13,13.13,0,0,0-.248,2.725l.186,20.257.186,15.672a4.445,4.445,0,0,0,.372,1.8,4.035,4.035,0,0,0,.929,1.425h.062a4.318,4.318,0,0,0,1.487,1.053,4.739,4.739,0,0,0,1.858.372,4.64,4.64,0,0,0,4.584-4.708l-.186-15.61-.186-20.318a3.959,3.959,0,0,1,.681-2.416,5.431,5.431,0,0,1,.5-.62h.062a1.572,1.572,0,0,1,.619-.5,2.843,2.843,0,0,1,1.549-.62,3.818,3.818,0,0,1,.805-.062,20.385,20.385,0,0,0,15.115-5.823,20.98,20.98,0,0,0,4.584-6.814,12.543,12.543,0,0,0,.681-1.982,13.433,13.433,0,0,0,.5-1.858,24.557,24.557,0,0,0,.372-4.336l-.186-20.318,5.637.124a34.066,34.066,0,0,0,3.531,10.716,30.515,30.515,0,0,0,2.106,3.345,12.516,12.516,0,0,0,.805,1.115c.867,1.115,1.734,2.168,2.664,3.159a32.391,32.391,0,0,0,36.3,7.248,4.659,4.659,0,0,0,2.726-3.345,5.2,5.2,0,0,0-.681-3.469c-.248-.248-.434-.5-.62-.681l-11.894-12.141a4.493,4.493,0,0,1-.186-6.318,4.063,4.063,0,0,1,2.044-1.053,4.765,4.765,0,0,1,4.274,1.425l11.894,12.079a4.593,4.593,0,0,0,7.5-1.239A31.106,31.106,0,0,0,399.865,273.792ZM295.424,291.508v.062a23.327,23.327,0,0,1-1.92,1.549h-.062a7.533,7.533,0,0,1-2.23,1.115,7.767,7.767,0,0,1-2.416.681,10.625,10.625,0,0,1-2.788.248l-21.557-.682a15.377,15.377,0,0,1-12.7-8.92,13.036,13.036,0,0,1-1.177-5.265l-.124-7.31-.062-10.469a4.163,4.163,0,0,1,1.177-2.973,4.108,4.108,0,0,1,3.035-1.115l39.707,1.239a3.43,3.43,0,0,1,1.115.124,4.645,4.645,0,0,1,2.168,1.3h.062a4.808,4.808,0,0,1,.991,1.487,4.567,4.567,0,0,1,.248.867,3.652,3.652,0,0,1,.124.867v.124l.186,17.717A12.755,12.755,0,0,1,295.424,291.508Zm26.141-21-13.194-.434v-1.487a9.531,9.531,0,0,1,8.177-8.3,5.055,5.055,0,0,1,5.018,5.389Zm69.07,9.6-6.318-6.38a15.411,15.411,0,0,0-3.469-2.6,13.521,13.521,0,0,0-15.982,2.106,13.892,13.892,0,0,0,.062,19.451l6.38,6.443a23.637,23.637,0,0,1-21.5-10.159c-6.5-9.23-5.637-21.433,2.044-28.991a20.126,20.126,0,0,1,7.062-4.584,21.458,21.458,0,0,1,11.708-1.239,22.219,22.219,0,0,1,5.265,1.487h.062a23.337,23.337,0,0,1,4.956,2.849,18.253,18.253,0,0,1,1.611,1.239,15.463,15.463,0,0,1,1.425,1.425,23.152,23.152,0,0,1,4.088,5.513,20.813,20.813,0,0,1,1.239,2.664,16.6,16.6,0,0,1,.557,1.611,14.655,14.655,0,0,1,.557,2.23,22.359,22.359,0,0,1,.434,4.522A15.863,15.863,0,0,1,390.635,280.11Z" transform="translate(0 0)" fill="#abb7cc"/>
      <path id="Path_172" data-name="Path 172" d="M250.52,284.883l6.331,6.461a23.6,23.6,0,0,1-21.446-10.2c-6.523-9.224-5.655-21.433,2.044-28.978,7.743-7.588,19.928-8.164,29.059-1.5a21.9,21.9,0,0,1,3.042,2.657,23.445,23.445,0,0,1,6.684,19.036L269.9,265.9a13.571,13.571,0,1,0-19.383,18.986Z" transform="translate(114.426 7.808)" fill="#d3d9e4"/>
      <path id="Path_173" data-name="Path 173" d="M238.275,257.257l-13.226-.4.012-1.493a9.494,9.494,0,0,1,8.189-8.282,5.02,5.02,0,0,1,4.98,5.352Z" transform="translate(83.316 13.228)" fill="#d3d9e4"/>
      <path id="Path_174" data-name="Path 174" d="M260.7,279.922a12.675,12.675,0,0,1-9.41,3.581l-21.545-.657c-7.229-.2-13.82-6.932-13.876-14.155l-.1-7.365-.074-10.425a3.981,3.981,0,0,1,4.206-4.119l39.72,1.239a4.531,4.531,0,0,1,3.314,1.437A4.619,4.619,0,0,1,264.3,252.8l.211,17.748A12.723,12.723,0,0,1,260.7,279.922Z" transform="translate(34.704 11.63)" fill="#d3d9e4"/>
      <path id="Path_175" data-name="Path 175" d="M281.461,271.345a11.025,11.025,0,0,1-3.345,8.239,11.348,11.348,0,0,1-5.637,2.973,12.557,12.557,0,0,1-2.664.186,2.112,2.112,0,0,0-.62.062,11.405,11.405,0,0,0-2.54.248,14,14,0,0,0-2.292.682.228.228,0,0,0-.186.062,17.3,17.3,0,0,0-2.106,1.115.217.217,0,0,1-.124.062,11.524,11.524,0,0,0-1.92,1.611h-.062a13.122,13.122,0,0,0-2.354,3.159,15.784,15.784,0,0,0-.805,1.8,3.5,3.5,0,0,0-.248.743,9.911,9.911,0,0,0-.31,1.3,13.129,13.129,0,0,0-.248,2.725l.186,20.257H226.615a9.766,9.766,0,0,1-9.763-9.763V282.991a2.111,2.111,0,0,0,.062-.619l-.062-3.9-.062-5.327a20.748,20.748,0,0,0,7,1.425l21.5.619a22.511,22.511,0,0,0,11.026-2.478,22.121,22.121,0,0,0,5.2-3.717v-.062a22.269,22.269,0,0,0,6.566-16.044V250.16l13.194.434Z" transform="translate(40.414 29.207)" fill="#d3d9e4"/>
      <line id="Line_37" data-name="Line 37" y1="7.681" transform="translate(257.266 345.773)" fill="none" stroke="rgba(0,0,0,0)" stroke-width="1"/>
      <line id="Line_38" data-name="Line 38" y1="4.522" transform="translate(257.266 307.676)" fill="none" stroke="rgba(0,0,0,0)" stroke-width="1"/>
      <g id="Group_345" data-name="Group 345" transform="translate(254.732 264.393)">
        <path id="Path_176" data-name="Path 176" d="M228.923,264.715V249.737a2.273,2.273,0,0,0-2.329-2.218h-7.4a2.742,2.742,0,0,0-2.806,2.676v7.341a9.809,9.809,0,0,0,10.029,9.571A2.45,2.45,0,0,0,228.923,264.715Z" transform="translate(-216.391 -247.519)" fill="#f0f1f4"/>
        <path id="Path_177" data-name="Path 177" d="M227.189,254.6h-9.44V279.68a7.531,7.531,0,0,0,7.7,7.347h4.832V257.553A3.025,3.025,0,0,0,227.189,254.6Z" transform="translate(-209.342 -210.747)" fill="#f0f1f4"/>
      </g>
    </g>
    <g id="Subtraction_2" data-name="Subtraction 2" transform="translate(10744 7801)" fill="none" opacity="0.243">
      <path d="M-10485.972-7412.695l0,0a16.5,16.5,0,0,1-4.027-10.8,16.391,16.391,0,0,1,4.833-11.666A16.4,16.4,0,0,1-10473.5-7440a16.369,16.369,0,0,1,9.769,3.2,25.508,25.508,0,0,0-15.47,7.961,25.448,25.448,0,0,0-4.766,7.342,25.322,25.322,0,0,0-2.006,8.8Z" stroke="none"/>
      <path d="M -10485.9716796875 -7412.69482421875 L -10485.9736328125 -7412.69677734375 C -10488.5703125 -7415.693359375 -10490.0009765625 -7419.5302734375 -10490.0009765625 -7423.50048828125 C -10490.0009765625 -7427.9072265625 -10488.2841796875 -7432.05029296875 -10485.16796875 -7435.16650390625 C -10482.05078125 -7438.283203125 -10477.9072265625 -7439.99951171875 -10473.4990234375 -7439.99951171875 C -10469.955078125 -7439.99951171875 -10466.5771484375 -7438.892578125 -10463.73046875 -7436.7978515625 C -10469.63671875 -7436.05126953125 -10475.1298828125 -7433.224609375 -10479.2001953125 -7428.8369140625 C -10481.208984375 -7426.67041015625 -10482.8125 -7424.20068359375 -10483.9658203125 -7421.4951171875 C -10485.15625 -7418.70458984375 -10485.8310546875 -7415.744140625 -10485.9716796875 -7412.697265625 L -10485.9716796875 -7412.69482421875 Z" stroke="none" fill="#fafafa"/>
    </g>
  </g>
</svg>
