<svg xmlns="http://www.w3.org/2000/svg" width="113.169" height="123.059" viewBox="0 0 113.169 123.059">
    <defs>
        <clipPath id="clip-path">
            <path id="Rectangle_775" fill="none" d="M0 0H113.169V104.253H0z"/>
        </clipPath>
        <style>
            .cls-2{fill:#ff9505}.cls-4{fill:#ef7112}.cls-5{fill:#2f3848}
        </style>
    </defs>
    <g id="Group_6159">
        <path id="Path_4333" d="M0 0h39.026v68.111l-18.963-11.45L0 68.111z" class="cls-2" transform="translate(37.839 54.949)"/>
        <g id="Group_6091">
            <g id="Group_6090" clip-path="url(#clip-path)">
                <path id="Path_745" d="M232.179 153.965a47.126 47.126 0 1 1-47.125-47.416 47.272 47.272 0 0 1 47.125 47.416" class="cls-2" transform="translate(-127.776 -102.366)"/>
                <path id="Path_746" d="M273.091 55.1l-.044.013V55.1z" class="cls-4" transform="translate(-221.942 -44.791)"/>
                <path id="Path_747" d="M107.2 210.857h-5.48z" class="cls-4" transform="translate(-82.68 -171.393)"/>
                <path id="Path_748" d="M126.089 60.407a8.7 8.7 0 0 0 2.12-13.663A8.755 8.755 0 0 0 126.4 45.3a8.592 8.592 0 0 0 1.231-1.663 8.705 8.705 0 0 0-5.621-12.794 8.8 8.8 0 0 0 .7-2.2 8.711 8.711 0 0 0-9.358-10.178 8.768 8.768 0 0 0-.021-2.312 8.709 8.709 0 0 0-12.063-6.773A8.691 8.691 0 0 0 86.973 4.5a8.7 8.7 0 0 0-7.48-4.5h-.371c-.122.005-.241 0-.354 0a8.677 8.677 0 0 0-6.715 3.176c-.232-.16-.472-.312-.721-.451A8.709 8.709 0 0 0 58.634 8.2a8.7 8.7 0 0 0-12.41 6.1 8.794 8.794 0 0 0-.148 2.308 8.739 8.739 0 0 0-2.312-.029 8.7 8.7 0 0 0-7.01 11.921 8.688 8.688 0 0 0-5.183 14.183 8.744 8.744 0 0 0-1.889 1.347 8.7 8.7 0 0 0-.424 12.292 8.781 8.781 0 0 0 1.79 1.469 8.543 8.543 0 0 0-1.379 1.859 8.7 8.7 0 0 0 5.575 12.655 8.69 8.69 0 0 0 7.816 12.523c.221 0 .445-.008.666-.025a8.785 8.785 0 0 0-.013 2.316 8.7 8.7 0 0 0 11.961 6.935 8.724 8.724 0 0 0 .708 2.2 8.711 8.711 0 0 0 13.526 2.879 8.708 8.708 0 0 0 7.428 4.591h.242a8.708 8.708 0 0 0 7.428-4.18 8.7 8.7 0 0 0 13.667-2.127 8.614 8.614 0 0 0 .826-2.165 8.792 8.792 0 0 0 3.786.858 8.7 8.7 0 0 0 8.655-9.439 8.313 8.313 0 0 0 1.144.078 8.7 8.7 0 0 0 8.018-12.09 8.7 8.7 0 0 0 4.987-14.259m-1.929-5.322a3.183 3.183 0 0 1-2.287.9 3.024 3.024 0 0 1-.571-.063l-.344 1.623-.093-.015-.167 1.066-.107.685-.2.944-.223 1.058.108.021-.257 1.638a3.383 3.383 0 0 1 .571.143 3.217 3.217 0 1 1-2.131 6.07 3.118 3.118 0 0 1-.527-.242l-.82 1.444c-.027-.017-.055-.032-.084-.046l-.489.967-.008.017-.74 1.461-.489.967-.748 1.478a3.3 3.3 0 0 1 .491.308 3.217 3.217 0 1 1-3.9 5.116 2.96 2.96 0 0 1-.432-.394l-1.229 1.111-.057-.059-.769.763-.512.508-.694.626-.8.727.063.068-1.176 1.166a3.63 3.63 0 0 1 .386.464 3.216 3.216 0 1 1-5.586 3.138l-1.509.681-.038-.078-.967.489-.736.373-.757.341-.989.445c.013.025.023.053.038.078l-1.48.748a3.307 3.307 0 0 1 .217.546 3.216 3.216 0 0 1-6.169 1.841 3.268 3.268 0 0 1-.118-.588l-1.648.177-.013-.093-1.07.164-.882.14-.759.082-1.079.116c0 .03.006.057.01.086l-1.634.255a3.576 3.576 0 0 1 .036.586 3.217 3.217 0 0 1-6.433-.173 3.177 3.177 0 0 1 .067-.569l-1.619-.354c.006-.032.013-.065.017-.1l-1.069-.173-.748-.122-.877-.192-1.058-.23-.021.105-1.636-.266a3.217 3.217 0 1 1-6.207-1.593 3.341 3.341 0 0 1 .245-.531l-1.431-.835c.017-.029.034-.059.048-.089l-.963-.5-.753-.386-.7-.409-.934-.544c-.017.03-.034.059-.048.089L55.2 87.5a3.225 3.225 0 0 1-.312.487 3.217 3.217 0 0 1-5.093-3.931 3.084 3.084 0 0 1 .394-.424l-1.1-1.243c.025-.023.053-.048.078-.074l-.763-.769-.531-.535-.6-.677-.717-.812c-.03.025-.059.051-.086.078l-1.168-1.176a3.216 3.216 0 1 1-3.554-5.238l-.668-1.513.082-.04-.485-.97-.375-.752-.329-.744-.438-.993-.082.038-.74-1.482a3.094 3.094 0 0 1-.542.211 3.216 3.216 0 1 1-1.771-6.182 3.4 3.4 0 0 1 .573-.112L36.806 59l.078-.01-.154-1.075-.114-.79-.086-.852-.11-1.079-.08.008-.24-1.634a3.38 3.38 0 0 1-.6.033 3.216 3.216 0 0 1 .221-6.428 3.16 3.16 0 0 1 .569.071l.363-1.616.1.017.179-1.067.127-.746.2-.875.241-1.057-.105-.023.276-1.636a3.29 3.29 0 0 1-.561-.15 3.145 3.145 0 0 1-.824-.447 3.215 3.215 0 0 1 3.027-5.6 3.133 3.133 0 0 1 .523.244l.845-1.425.095.051.5-.959.4-.763.407-.685.552-.932c-.03-.017-.061-.036-.091-.051l.765-1.471a3.027 3.027 0 0 1-.481-.314 3.216 3.216 0 0 1 3.965-5.065 3.109 3.109 0 0 1 .426.4l1.248-1.092.07.074.776-.757.542-.527.008-.008.668-.586.816-.712c-.023-.025-.046-.053-.072-.078l1.187-1.159a3.242 3.242 0 0 1-.371-.455 3.217 3.217 0 1 1 5.336-3.574 3.141 3.141 0 0 1 .276.5l1.524-.653c.013.03.028.057.04.084l.972-.477 1.5-.685.995-.426c-.012-.032-.027-.061-.042-.093l1.488-.729a3.423 3.423 0 0 1-.207-.544 3.217 3.217 0 0 1 6.1-2.015l.609.24c.019.257.053.514.1.763l1.273-.221.853-.147.574-.1 2.127-.369.148.552c0-.128-.015-.257-.028-.381l-.019-.188.472-.082a3.213 3.213 0 0 1 2.9-3.729 3.214 3.214 0 0 1 2.9 3.2 3.052 3.052 0 0 1-.053.576l2.2.413a.336.336 0 0 0-.008.046l.5.074.824.124.032.007 1.351.253.23.042.833.166c.006-.032.013-.063.017-.095l1.638.246a3.412 3.412 0 0 1 .139-.571 3.217 3.217 0 1 1 6.087 2.083 3.052 3.052 0 0 1-.234.52l1.446.816-.053.1.97.474.814.4.655.369.94.531c.017-.032.034-.061.053-.093l1.488.729a3.082 3.082 0 0 1 .3-.478 3.216 3.216 0 1 1 5.139 3.87 3.139 3.139 0 0 1-.392.432l1.121 1.22-.067.068.771.759.588.577.563.613.733.8c.023-.021.046-.042.07-.068l1.182 1.164a3.216 3.216 0 1 1 4.133 4.894 2.99 2.99 0 0 1-.493.282l.683 1.513c-.034.015-.065.032-.1.049l.5.957.382.729.343.763.445.984.1-.046.769 1.469a3.105 3.105 0 0 1 .525-.213 3.216 3.216 0 0 1 1.863 6.157 3.121 3.121 0 0 1-.569.116l.188 1.648c-.03 0-.061.008-.091.013l.173 1.068.131.807.095.832.122 1.077c.03 0 .061-.006.091-.013l.266 1.636a3.226 3.226 0 0 1 .586-.04 3.215 3.215 0 0 1 2.16 5.535" class="cls-5" transform="translate(-21.881 -.001)"/>
                <path id="Path_749" d="M181.011 236.717v-2.049h2.607v-10.1a24.251 24.251 0 0 1-2.952 1.156v-2.333a18.6 18.6 0 0 0 3.246-1.44h2.282v12.761h2.658v2.008z" class="cls-5" transform="translate(-146.853 -180.409)"/>
                <path id="Path_750" d="M243.267 235.761a4.317 4.317 0 0 1-3.829-2.1 10.262 10.262 0 0 1-1.364-5.645 9.79 9.79 0 0 1 1.344-5.554 4.4 4.4 0 0 1 3.87-1.973 4.332 4.332 0 0 1 3.829 2.019 9.834 9.834 0 0 1 1.344 5.508 12.805 12.805 0 0 1-.578 4.052 5.837 5.837 0 0 1-1.76 2.713 4.316 4.316 0 0 1-2.855.984m.041-2.2q2.526 0 2.526-5.539a13.97 13.97 0 0 0-.132-1.988 8.649 8.649 0 0 0-.411-1.689 2.878 2.878 0 0 0-.781-1.217 1.747 1.747 0 0 0-1.192-.441 1.883 1.883 0 0 0-1.248.441 2.8 2.8 0 0 0-.811 1.217 8.383 8.383 0 0 0-.416 1.689 13.985 13.985 0 0 0-.132 2 16.513 16.513 0 0 0 .132 2.221 7.932 7.932 0 0 0 .421 1.73 2.616 2.616 0 0 0 .806 1.172 1.944 1.944 0 0 0 1.237.406" class="cls-5" transform="translate(-193.516 -179.219)"/>
                <path id="Path_751" d="M307.99 235.761a4.317 4.317 0 0 1-3.829-2.1 10.262 10.262 0 0 1-1.364-5.645 9.79 9.79 0 0 1 1.344-5.554 4.4 4.4 0 0 1 3.87-1.973 4.332 4.332 0 0 1 3.829 2.019 9.834 9.834 0 0 1 1.344 5.508 12.8 12.8 0 0 1-.578 4.052 5.837 5.837 0 0 1-1.76 2.713 4.316 4.316 0 0 1-2.855.984m.041-2.2q2.526 0 2.526-5.539a13.951 13.951 0 0 0-.132-1.988 8.64 8.64 0 0 0-.411-1.689 2.877 2.877 0 0 0-.781-1.217 1.747 1.747 0 0 0-1.192-.441 1.884 1.884 0 0 0-1.248.441 2.8 2.8 0 0 0-.812 1.217 8.385 8.385 0 0 0-.416 1.689 14 14 0 0 0-.132 2 16.524 16.524 0 0 0 .132 2.221 7.934 7.934 0 0 0 .421 1.73 2.615 2.615 0 0 0 .806 1.172 1.944 1.944 0 0 0 1.237.406" class="cls-5" transform="translate(-246.125 -179.219)"/>
                <path id="Path_752" d="M369.789 228.671a3.656 3.656 0 0 1-2.729-1.019 4.462 4.462 0 0 1 0-5.64 4.086 4.086 0 0 1 5.452.005 4.453 4.453 0 0 1 .005 5.64 3.667 3.667 0 0 1-2.729 1.014m0-1.582a1.4 1.4 0 0 0 1.2-.533 2.923 2.923 0 0 0 .4-1.719 3.111 3.111 0 0 0-.38-1.714 1.582 1.582 0 0 0-2.424-.005 3.086 3.086 0 0 0-.38 1.709 2.947 2.947 0 0 0 .4 1.724 1.389 1.389 0 0 0 1.2.538m-.8 8.835l9.444-14.769h2.059l-9.444 14.769zm10.631.2a3.551 3.551 0 0 1-2.708-1.085 3.859 3.859 0 0 1-1.024-2.759 3.909 3.909 0 0 1 1.024-2.754 3.839 3.839 0 0 1 5.407.005 4.2 4.2 0 0 1 .01 5.513 3.559 3.559 0 0 1-2.708 1.08m-.01-1.582a1.4 1.4 0 0 0 1.2-.538 2.917 2.917 0 0 0 .4-1.724 3.056 3.056 0 0 0-.385-1.7 1.586 1.586 0 0 0-2.424-.01 3.024 3.024 0 0 0-.385 1.7 2.975 2.975 0 0 0 .4 1.73 1.384 1.384 0 0 0 1.2.543" class="cls-5" transform="translate(-297.546 -179.615)"/>
                <path id="Path_753" d="M129.174 343.193a4.678 4.678 0 0 1-3.484-1.236 4.558 4.558 0 0 1-1.22-3.348 5.743 5.743 0 0 1 .2-1.517 4.668 4.668 0 0 1 .605-1.346 4.6 4.6 0 0 1 .981-1.075 4.312 4.312 0 0 1 1.365-.716 5.505 5.505 0 0 1 1.718-.259 7.034 7.034 0 0 1 1.182.092 3.809 3.809 0 0 1 .911.261 5.8 5.8 0 0 1 .561.281 4.348 4.348 0 0 1 .4.281l-.643 1.122a4.009 4.009 0 0 0-2.409-.656 3.311 3.311 0 0 0-1.425.3 2.656 2.656 0 0 0-1.009.794 3.68 3.68 0 0 0-.574 1.1 4.1 4.1 0 0 0-.2 1.268 4.252 4.252 0 0 0 .2 1.324 2.982 2.982 0 0 0 .574 1.037 2.514 2.514 0 0 0 .974.681 3.6 3.6 0 0 0 1.365.242 5.5 5.5 0 0 0 1.57-.24v-2.169h-2.144v-1.368h3.771v4.445a7.952 7.952 0 0 1-3.273.7" class="cls-5" transform="translate(-101.174 -271.243)"/>
                <path id="Path_754" d="M176.992 355.709a2.438 2.438 0 0 1-1.829-.672 2.526 2.526 0 0 1-.656-1.844v-4.1h1.551v4.074a1.141 1.141 0 0 0 1.255 1.28 1.383 1.383 0 0 0 1.037-.35 1.582 1.582 0 0 0 .337-1.126v-3.878h1.564v4.729l.076 1.74h-1.614l-.025-.958a.954.954 0 0 1-.142.306 2.247 2.247 0 0 1-.3.356 1.5 1.5 0 0 1-.523.315 2.038 2.038 0 0 1-.728.126" class="cls-5" transform="translate(-141.847 -283.758)"/>
                <path id="Path_755" d="M214.286 355a3.378 3.378 0 0 1-1.412-.284 2.673 2.673 0 0 1-1-.757 3.421 3.421 0 0 1-.574-1.053 3.789 3.789 0 0 1-.2-1.217 4.044 4.044 0 0 1 .2-1.283 3.62 3.62 0 0 1 .59-1.1 2.714 2.714 0 0 1 1.025-.788 3.416 3.416 0 0 1 1.444-.293 2.109 2.109 0 0 1 1.8.851v-.687h1.541v6.469h-1.57v-.883a2.146 2.146 0 0 1-1.844 1.025m.2-1.261a1.514 1.514 0 0 0 1.321-.577 2.6 2.6 0 0 0 .413-1.542 2.5 2.5 0 0 0-.438-1.561 1.568 1.568 0 0 0-1.327-.571 1.615 1.615 0 0 0-1.334.574 2.388 2.388 0 0 0-.464 1.545 2.414 2.414 0 0 0 .464 1.551 1.642 1.642 0 0 0 1.365.58" class="cls-5" transform="translate(-171.593 -283.047)"/>
                <path id="Path_756" d="M253.247 354.851v-4.83q0-.378-.031-.788t-.063-.631l-.032-.22h1.665v.851a3.336 3.336 0 0 1 .766-.76 1.513 1.513 0 0 1 .861-.255 2.556 2.556 0 0 1 .643.095v1.368a2.519 2.519 0 0 0-.782-.139 1.411 1.411 0 0 0-1.059.422 1.687 1.687 0 0 0-.41 1.223v3.663z" class="cls-5" transform="translate(-205.747 -283.046)"/>
                <path id="Path_757" d="M279.152 355a3.5 3.5 0 0 1-2.576-.933 3.282 3.282 0 0 1-.943-2.44 3.684 3.684 0 0 1 .227-1.293 3.46 3.46 0 0 1 .64-1.084 2.914 2.914 0 0 1 1.047-.751 3.462 3.462 0 0 1 1.4-.278 3.178 3.178 0 0 1 1.343.265 2.22 2.22 0 0 1 .908.741 3.39 3.39 0 0 1 .5 1.069 5 5 0 0 1 .161 1.312.928.928 0 0 1-.031.278h-4.54a1.83 1.83 0 0 0 .577 1.4 2.154 2.154 0 0 0 1.434.454 3.537 3.537 0 0 0 2.043-.694l.423 1.135a4.69 4.69 0 0 1-1.233.621 4.513 4.513 0 0 1-1.378.2m-1.848-4.155h3.216a1.775 1.775 0 0 0-.511-1.053 1.382 1.382 0 0 0-.971-.366 1.7 1.7 0 0 0-1.129.378 1.841 1.841 0 0 0-.605 1.04" class="cls-5" transform="translate(-224.047 -283.046)"/>
                <path id="Path_758" d="M314.78 354.851v-4q0-.687-.031-1.3t-.063-.886l-.032-.277h1.658v.864a2.136 2.136 0 0 1 .892-.766 2.541 2.541 0 0 1 1.081-.262 2.972 2.972 0 0 1 .984.148 1.927 1.927 0 0 1 .747.479 2.131 2.131 0 0 1 .5.911 5.045 5.045 0 0 1 .17 1.406v3.689h-1.564v-3.8a2.077 2.077 0 0 0-.268-1.214 1.039 1.039 0 0 0-.886-.356 1.444 1.444 0 0 0-.5.1 2.338 2.338 0 0 0-.527.281 1.473 1.473 0 0 0-.426.473 1.253 1.253 0 0 0-.17.64v3.872z" class="cls-5" transform="translate(-255.764 -283.046)"/>
                <path id="Path_759" d="M353.3 346.985h-.63q-.378 0-.656-.019a4 4 0 0 1-.571-.082 2.065 2.065 0 0 1-.5-.167 1.712 1.712 0 0 1-.394-.281 1.327 1.327 0 0 1-.3-.426 2.642 2.642 0 0 1-.18-.6 4.268 4.268 0 0 1-.066-.794v-3.052h-1.349v-1.047h1.413v-1.513l1.494-.46v1.974h1.69v1.047h-1.69v3.147a2.037 2.037 0 0 0 .047.488.837.837 0 0 0 .142.309.561.561 0 0 0 .318.18 2.794 2.794 0 0 0 .489.076q.265.019.744.019z" class="cls-5" transform="translate(-283.401 -275.186)"/>
                <path id="Path_760" d="M380.243 355a3.5 3.5 0 0 1-2.576-.933 3.282 3.282 0 0 1-.943-2.44 3.686 3.686 0 0 1 .227-1.293 3.458 3.458 0 0 1 .64-1.084 2.914 2.914 0 0 1 1.047-.751 3.462 3.462 0 0 1 1.4-.278 3.178 3.178 0 0 1 1.343.265 2.22 2.22 0 0 1 .908.741 3.39 3.39 0 0 1 .5 1.069 5 5 0 0 1 .161 1.312.93.93 0 0 1-.031.278h-4.54a1.83 1.83 0 0 0 .577 1.4 2.154 2.154 0 0 0 1.434.454 3.536 3.536 0 0 0 2.043-.694l.423 1.135a4.688 4.688 0 0 1-1.233.621 4.513 4.513 0 0 1-1.378.2m-1.848-4.155h3.216a1.775 1.775 0 0 0-.511-1.053 1.382 1.382 0 0 0-.971-.366 1.7 1.7 0 0 0-1.131.372 1.841 1.841 0 0 0-.605 1.04" class="cls-5" transform="translate(-306.218 -283.046)"/>
                <path id="Path_761" d="M418.253 355a3.5 3.5 0 0 1-2.576-.933 3.282 3.282 0 0 1-.943-2.44 3.684 3.684 0 0 1 .227-1.293 3.46 3.46 0 0 1 .64-1.084 2.914 2.914 0 0 1 1.047-.751 3.462 3.462 0 0 1 1.4-.278 3.178 3.178 0 0 1 1.343.265 2.22 2.22 0 0 1 .908.741 3.385 3.385 0 0 1 .5 1.069 5 5 0 0 1 .161 1.312.926.926 0 0 1-.031.278h-4.54a1.83 1.83 0 0 0 .577 1.4 2.153 2.153 0 0 0 1.434.454 3.536 3.536 0 0 0 2.043-.694l.423 1.135a4.69 4.69 0 0 1-1.233.621 4.514 4.514 0 0 1-1.378.2m-1.848-4.155h3.216a1.774 1.774 0 0 0-.511-1.053 1.382 1.382 0 0 0-.971-.366 1.7 1.7 0 0 0-1.129.378 1.84 1.84 0 0 0-.605 1.04" class="cls-5" transform="translate(-337.114 -283.046)"/>
                <path id="Path_762" d="M455.7 343.906a2.743 2.743 0 0 1-2.1-.921 3.441 3.441 0 0 1-.848-2.427 4.241 4.241 0 0 1 .2-1.3 3.538 3.538 0 0 1 .564-1.091 2.576 2.576 0 0 1 .968-.76 3.129 3.129 0 0 1 1.343-.281 2.186 2.186 0 0 1 1.132.274 1.841 1.841 0 0 1 .646.571v-3.4h1.551v7.459q0 .038.057 1.728h-1.6l-.013-.826a1.021 1.021 0 0 1-.189.3 2.146 2.146 0 0 1-.353.312 1.822 1.822 0 0 1-.574.262 2.817 2.817 0 0 1-.776.1m.322-1.261a1.556 1.556 0 0 0 .75-.173 1.308 1.308 0 0 0 .508-.479 2.409 2.409 0 0 0 .278-.672 3.249 3.249 0 0 0 .091-.788 2.665 2.665 0 0 0-.41-1.542 1.393 1.393 0 0 0-1.229-.6 1.444 1.444 0 0 0-.924.3 1.627 1.627 0 0 0-.536.757 3.21 3.21 0 0 0-.161 1.059 3.387 3.387 0 0 0 .091.807 2.4 2.4 0 0 0 .278.678 1.3 1.3 0 0 0 .511.479 1.574 1.574 0 0 0 .754.173" class="cls-5" transform="translate(-368.01 -271.956)"/>
                <path id="Path_763" d="M184.121 127.034l-4.76-1.01a31.443 31.443 0 1 0-61.518 0l-4.76 1.01a36.31 36.31 0 1 1 71.038 0" class="cls-5" transform="translate(-91.276 -67.597)"/>
                <path id="Path_764" d="M209.98 421.619a35.968 35.968 0 0 1-22.176-7.556l2.974-3.851a31.454 31.454 0 0 0 38.4 0l2.974 3.851a35.967 35.967 0 0 1-22.176 7.556" class="cls-5" transform="translate(-152.655 -333.437)"/>
            </g>
        </g>
    </g>
</svg>
