<svg xmlns="http://www.w3.org/2000/svg" id="Group_6157" width="101.038" height="113.657" viewBox="0 0 101.038 113.657">
    <defs>
        <clipPath id="clip-path">
            <path id="Rectangle_769" fill="none" d="M0 0H101.038V113.657H0z"/>
        </clipPath>
        <style>
            .cls-3{fill:#ff9505}.cls-5{fill:#2f3848}
        </style>
    </defs>
    <g id="Group_6084" clip-path="url(#clip-path)">
        <path id="Path_725" d="M94.6 339.406l4.984 4.358h.263c12.733 0 23.056 9.027 23.056 20.163v11.7H37.928v-11.4c0-11.135 10.322-20.162 23.056-20.162h2.49l2.567-4.639s13.818 10.438 28.556-.019" class="cls-3" transform="translate(-30.176 -270.032)"/>
        <path id="Path_726" d="M167.492 61.407a3.874 3.874 0 0 1-3.873 3.876h-8.246l-29.787-.016h-8.292a3.875 3.875 0 0 1-3.873-3.875v-.041a3.875 3.875 0 0 1 3.89-3.875h1.28a18.028 18.028 0 0 1 14.144-17.6v15.442a2.218 2.218 0 0 0 2.218 2.218h11.023a2.216 2.216 0 0 0 2.216-2.216V39.859a18.029 18.029 0 0 1 14.167 17.611v.061h1.257a3.876 3.876 0 0 1 3.875 3.875" class="cls-3" transform="translate(-90.234 -31.712)"/>
        <path id="Path_727" fill="#ffb627" d="M223.343 15.216v18.727a2.216 2.216 0 0 1-2.216 2.216H210.1a2.218 2.218 0 0 1-2.218-2.218V15.216A2.217 2.217 0 0 1 210.11 13h11.017a2.216 2.216 0 0 1 2.216 2.216" transform="translate(-165.394 -10.343)"/>
        <path id="Path_728" d="M130.732 197.542c-2.841 0-4.825-3.11-4.825-7.563s1.984-7.563 4.825-7.563 4.825 3.11 4.825 7.563-1.984 7.563-4.825 7.563" class="cls-5" transform="translate(-100.172 -145.13)"/>
        <path id="Path_729" d="M323.478 197.732c-2.841 0-4.825-3.11-4.825-7.563s1.984-7.563 4.825-7.563 4.825 3.11 4.825 7.563-1.984 7.563-4.825 7.563" class="cls-5" transform="translate(-253.521 -145.282)"/>
        <path id="Path_730" d="M168.087 195.916c-5.459 0-10.548-2.669-14.331-7.516a28.159 28.159 0 0 1-5.631-17.311 29.7 29.7 0 0 1 2.66-12.417l4.822 2.235a24.357 24.357 0 0 0-2.167 10.182c0 10.759 6.571 19.512 14.647 19.512s14.645-8.753 14.645-19.512a24.364 24.364 0 0 0-2.16-10.167l4.823-2.231a29.714 29.714 0 0 1 2.651 12.4 28.158 28.158 0 0 1-5.63 17.311c-3.782 4.846-8.871 7.516-14.329 7.516" class="cls-5" transform="translate(-117.849 -126.24)"/>
        <path id="Path_731" d="M115.214 359.071H24.928v-13.142c0-11.874 11.535-21.534 25.713-21.534h.824l3.349-5.8 2.621 1.9c.493.351 12.366 8.622 25.145-.062l1.86-1.263 5.913 4.952c13.786.377 24.861 9.887 24.861 21.523zm-84.972-4.451H109.9v-8.978c0-9.42-9.151-17.083-20.4-17.083h-1.363L84 325.1a27.306 27.306 0 0 1-20.273 2.97 31.335 31.335 0 0 1-7-2.57l-1.935 3.35h-4.151c-11.248 0-20.4 7.664-20.4 17.084z" class="cls-5" transform="translate(-19.833 -253.476)"/>
        <path id="Path_732" d="M153.275 55.107l-46.33-.025a6.542 6.542 0 0 1-6.529-6.532v-.041a6.537 6.537 0 0 1 5.328-6.423 20.683 20.683 0 0 1 16.073-17.647l3.227-.708v18.306h10.142V23.73l3.222.7a20.683 20.683 0 0 1 16.12 17.732 6.533 6.533 0 0 1-1.249 12.945m-46.326-7.816a1.217 1.217 0 0 0-1.219 1.218v.041a1.22 1.22 0 0 0 1.218 1.218l46.324.025a1.218 1.218 0 1 0 0-2.437h-3.914v-2.718a15.367 15.367 0 0 0-8.862-13.923V42.48a4.878 4.878 0 0 1-4.873 4.873H124.6a4.88 4.88 0 0 1-4.875-4.875V30.733a15.469 15.469 0 0 0-5.387 4.214 15.185 15.185 0 0 0-3.442 9.692V47.3l-3.945-.012z" class="cls-5" transform="translate(-79.891 -18.88)"/>
        <path id="Path_733" d="M210.784 28.473h-11.023a4.88 4.88 0 0 1-4.875-4.875l.006-18.727A4.879 4.879 0 0 1 199.767 0h11.017a4.878 4.878 0 0 1 4.873 4.873V23.6a4.878 4.878 0 0 1-4.873 4.873M200.2 23.158h10.142V5.314h-10.136z" class="cls-5" transform="translate(-155.051)"/>
    </g>
</svg>
