<svg xmlns="http://www.w3.org/2000/svg" xmlns:xlink="http://www.w3.org/1999/xlink" width="220" height="120" viewBox="0 0 220 120">
  <defs>
    <style>
      .cls-1 {
        clip-path: url(#clip-General_service_-_Electrical);
      }

      .cls-2 {
        fill: #ff9505;
      }

      .cls-3, .cls-8 {
        fill: #fff;
      }

      .cls-3 {
        stroke: #ffb627;
        stroke-width: 2px;
      }

      .cls-4 {
        fill: #202a3d;
      }

      .cls-5 {
        fill: #ffb627;
      }

      .cls-6 {
        stroke: none;
      }

      .cls-7 {
        fill: none;
      }
    </style>
    <clipPath id="clip-General_service_-_Electrical">
      <rect width="220" height="120"/>
    </clipPath>
  </defs>
  <g id="General_service_-_Electrical" data-name="General service - Electrical" class="cls-1">
    <rect class="cls-8" width="220" height="120"/>
    <path id="gray_rectangle" data-name="gray rectangle" class="cls-2" d="M228,9.333c0-.76-.292-1.333-1-1.333H9c-.7,0-1,.574-1,1.333V128H228Z" transform="translate(-8 -8)"/>
    <g id="Group_1" data-name="Group 1" transform="translate(-1)">
      <g id="Ellipse_94" data-name="Ellipse 94" class="cls-3" transform="translate(17 28)">
        <circle class="cls-6" cx="32" cy="32" r="32"/>
        <circle class="cls-7" cx="32" cy="32" r="31"/>
      </g>
      <g id="Electrical_icon" data-name="Electrical icon" transform="translate(34.982 40.237)">
        <path id="Path_80" data-name="Path 80" class="cls-4" d="M1196.126,735.011a13.736,13.736,0,1,0-19.715.443,5.335,5.335,0,0,1,1.581,3.779v5.217a8.063,8.063,0,1,0,16.11,0v-.775c0-.016.016-.016.016-.032s-.016-.016-.016-.032v-3.826A7.108,7.108,0,0,1,1196.126,735.011Zm-4.4,7.447h-3.368a1.186,1.186,0,0,0,0,2.372h3.336a5.823,5.823,0,0,1-5.644,5.676,5.668,5.668,0,0,1-5.091-3.383h2.023a1.186,1.186,0,1,0,0-2.372H1180.4a1.743,1.743,0,0,1-.032-.3v-4.174h11.367Zm.237-4.553h-11.747a7.621,7.621,0,0,0-2.15-4.142,11.333,11.333,0,0,1,6.7-19.352,12.09,12.09,0,0,1,1.3-.079,11.2,11.2,0,0,1,7.557,2.909,11.368,11.368,0,0,1,3.763,8.443,11.251,11.251,0,0,1-3.02,7.715A9.8,9.8,0,0,0,1191.968,737.9Z" transform="translate(-1172.327 -711.96)"/>
        <path id="Path_81" data-name="Path 81" class="cls-5" d="M1184.224,733.238a1.184,1.184,0,0,0,1.186,1.186h3.336a5.822,5.822,0,0,1-5.644,5.676,5.669,5.669,0,0,1-5.091-3.383h2.024a1.186,1.186,0,1,0,0-2.372h-2.593a1.77,1.77,0,0,1-.031-.3V729.87h11.367v2.182h-3.367A1.174,1.174,0,0,0,1184.224,733.238Z" transform="translate(-1169.372 -701.554)"/>
      </g>
    </g>
  </g>
</svg>
